<svg width="100" height="100" viewBox="0 0 100 100" fill="none" xmlns="http://www.w3.org/2000/svg">
<rect x="0.5" y="0.5" width="99" height="99" fill="#F6F9FF" stroke="#006A93"/>
<path d="M0 1H29.6902L7.12565 9.61015L0 30.6902V1Z" fill="#006A93"/>
<path d="M99.6904 99.6902H70.0002L92.5648 91.08L99.6904 70V99.6902Z" fill="#006A93"/>
<path d="M18.7464 38.97C19.0864 38.97 19.4564 38.99 19.8564 39.03C20.2564 39.0633 20.6464 39.1333 21.0264 39.24L20.9264 40.26C20.633 40.2467 20.2864 40.2367 19.8864 40.23C19.493 40.2233 19.1097 40.22 18.7364 40.22C18.4897 40.22 18.2897 40.2333 18.1364 40.26C17.9897 40.2867 17.883 40.3467 17.8164 40.44C17.7564 40.5267 17.7264 40.6733 17.7264 40.88C17.7264 41.12 17.7797 41.2933 17.8864 41.4C17.9997 41.5067 18.1897 41.6 18.4564 41.68L19.7864 42.11C20.333 42.3033 20.713 42.56 20.9264 42.88C21.1464 43.1933 21.2564 43.61 21.2564 44.13C21.2564 44.6567 21.173 45.0667 21.0064 45.36C20.8397 45.6467 20.5664 45.8467 20.1864 45.96C19.813 46.0733 19.313 46.13 18.6864 46.13C18.4597 46.13 18.1364 46.1133 17.7164 46.08C17.2964 46.0533 16.8197 45.98 16.2864 45.86L16.3764 44.78C16.9697 44.8 17.443 44.8133 17.7964 44.82C18.1564 44.8267 18.453 44.83 18.6864 44.83C19.0864 44.83 19.3597 44.79 19.5064 44.71C19.653 44.6233 19.7264 44.4367 19.7264 44.15C19.7264 43.9033 19.673 43.73 19.5664 43.63C19.4664 43.53 19.2964 43.4433 19.0564 43.37L17.6564 42.89C17.123 42.7033 16.7464 42.4533 16.5264 42.14C16.313 41.8267 16.2064 41.41 16.2064 40.89C16.2064 40.3633 16.2897 39.9633 16.4564 39.69C16.6297 39.41 16.903 39.22 17.2764 39.12C17.6497 39.02 18.1397 38.97 18.7464 38.97ZM25.5164 41.06V42.03H24.1364V44.42C24.1364 44.6 24.1764 44.73 24.2564 44.81C24.3364 44.8833 24.4764 44.92 24.6764 44.92H25.3164L25.4764 45.92C25.3498 45.9667 25.1998 46.0033 25.0264 46.03C24.8531 46.0567 24.6798 46.0767 24.5064 46.09C24.3398 46.1033 24.1964 46.11 24.0764 46.11C23.6298 46.11 23.2798 45.9933 23.0264 45.76C22.7798 45.52 22.6564 45.1833 22.6564 44.75V42.03H21.7964V41.11L22.6564 41.07V39.69H24.1364V41.06H25.5164ZM28.918 40.93C29.538 40.93 30.0147 41.06 30.348 41.32C30.6813 41.58 30.848 42.05 30.848 42.73V46H29.678L29.518 45.22C29.338 45.4267 29.0947 45.6267 28.788 45.82C28.4813 46.0133 28.1047 46.11 27.658 46.11C27.2113 46.11 26.8347 45.9933 26.528 45.76C26.2213 45.5267 26.068 45.18 26.068 44.72V44.21C26.068 43.8167 26.2013 43.51 26.468 43.29C26.7347 43.07 27.1013 42.96 27.568 42.96H29.368V42.73C29.3613 42.49 29.3013 42.32 29.188 42.22C29.0813 42.1133 28.878 42.06 28.578 42.06C28.318 42.06 27.998 42.07 27.618 42.09C27.238 42.1033 26.848 42.1233 26.448 42.15L26.318 41.17C26.5513 41.13 26.8213 41.0933 27.128 41.06C27.4413 41.02 27.7547 40.99 28.068 40.97C28.3813 40.9433 28.6647 40.93 28.918 40.93ZM28.118 45.04C28.298 45.04 28.498 45 28.718 44.92C28.9447 44.8333 29.1613 44.7167 29.368 44.57V43.79H28.028C27.848 43.7967 27.718 43.8433 27.638 43.93C27.5647 44.0167 27.528 44.1333 27.528 44.28V44.52C27.528 44.8667 27.7247 45.04 28.118 45.04ZM33.1614 41.06L33.3014 41.81C33.9814 41.2233 34.6514 40.93 35.3114 40.93H35.5714L35.4314 42.29H35.0214C34.808 42.29 34.5814 42.32 34.3414 42.38C34.108 42.44 33.8214 42.53 33.4814 42.65V46H32.0114V41.06H33.1614ZM39.5692 41.06V42.03H38.1892V44.42C38.1892 44.6 38.2292 44.73 38.3092 44.81C38.3892 44.8833 38.5292 44.92 38.7292 44.92H39.3692L39.5292 45.92C39.4025 45.9667 39.2525 46.0033 39.0792 46.03C38.9058 46.0567 38.7325 46.0767 38.5592 46.09C38.3925 46.1033 38.2492 46.11 38.1292 46.11C37.6825 46.11 37.3325 45.9933 37.0792 45.76C36.8325 45.52 36.7092 45.1833 36.7092 44.75V42.03H35.8492V41.11L36.7092 41.07V39.69H38.1892V41.06H39.5692ZM42.7007 40.93C43.5341 40.93 44.1307 41.0733 44.4907 41.36C44.8574 41.6467 45.0407 42.0667 45.0407 42.62C45.0474 43.0667 44.9341 43.4033 44.7007 43.63C44.4674 43.8567 44.0641 43.97 43.4907 43.97H41.7307C41.7707 44.3567 41.8807 44.6167 42.0607 44.75C42.2474 44.8833 42.5341 44.95 42.9207 44.95C43.1474 44.95 43.4274 44.9433 43.7607 44.93C44.1007 44.91 44.4407 44.88 44.7807 44.84L44.9207 45.75C44.6274 45.89 44.2807 45.9867 43.8807 46.04C43.4874 46.0933 43.1107 46.12 42.7507 46.12C41.8041 46.12 41.1341 45.9133 40.7407 45.5C40.3541 45.0867 40.1607 44.4333 40.1607 43.54C40.1607 42.8933 40.2441 42.38 40.4107 42C40.5841 41.62 40.8574 41.3467 41.2307 41.18C41.6041 41.0133 42.0941 40.93 42.7007 40.93ZM42.7507 41.97C42.4974 41.97 42.2941 42 42.1407 42.06C41.9941 42.12 41.8874 42.2367 41.8207 42.41C41.7541 42.5767 41.7141 42.82 41.7007 43.14H43.0907C43.3107 43.14 43.4507 43.0933 43.5107 43C43.5774 42.9067 43.6107 42.77 43.6107 42.59C43.6107 42.3567 43.5441 42.1967 43.4107 42.11C43.2774 42.0167 43.0574 41.97 42.7507 41.97ZM47.1653 41.06L47.3053 41.81C47.9853 41.2233 48.6553 40.93 49.3153 40.93H49.5753L49.4353 42.29H49.0253C48.8119 42.29 48.5853 42.32 48.3453 42.38C48.1119 42.44 47.8253 42.53 47.4853 42.65V46H46.0153V41.06H47.1653Z" fill="#006A93"/>
<path d="M54.9855 39C55.6255 39 56.1288 39.0667 56.4955 39.2C56.8688 39.3333 57.1322 39.5633 57.2855 39.89C57.4455 40.2167 57.5255 40.6733 57.5255 41.26C57.5255 41.8467 57.4488 42.3033 57.2955 42.63C57.1488 42.9567 56.9022 43.1833 56.5555 43.31C56.2155 43.4367 55.7588 43.5033 55.1855 43.51C54.9588 43.5033 54.7322 43.4933 54.5055 43.48C54.2855 43.4667 54.0722 43.45 53.8655 43.43V46H52.3455V39.1C52.6188 39.0733 52.8788 39.0533 53.1255 39.04C53.3722 39.0267 53.6388 39.0167 53.9255 39.01C54.2188 39.0033 54.5722 39 54.9855 39ZM54.9555 40.15C54.7555 40.15 54.5622 40.15 54.3755 40.15C54.1955 40.15 54.0255 40.15 53.8655 40.15V42.36H54.9555C55.3555 42.36 55.6288 42.2867 55.7755 42.14C55.9222 41.9933 55.9955 41.7 55.9955 41.26C55.9955 40.82 55.9222 40.5267 55.7755 40.38C55.6288 40.2267 55.3555 40.15 54.9555 40.15ZM60.9981 40.93C61.6181 40.93 62.0948 41.06 62.4281 41.32C62.7614 41.58 62.9281 42.05 62.9281 42.73V46H61.7581L61.5981 45.22C61.4181 45.4267 61.1748 45.6267 60.8681 45.82C60.5614 46.0133 60.1848 46.11 59.7381 46.11C59.2914 46.11 58.9148 45.9933 58.6081 45.76C58.3014 45.5267 58.1481 45.18 58.1481 44.72V44.21C58.1481 43.8167 58.2814 43.51 58.5481 43.29C58.8148 43.07 59.1814 42.96 59.6481 42.96H61.4481V42.73C61.4414 42.49 61.3814 42.32 61.2681 42.22C61.1614 42.1133 60.9581 42.06 60.6581 42.06C60.3981 42.06 60.0781 42.07 59.6981 42.09C59.3181 42.1033 58.9281 42.1233 58.5281 42.15L58.3981 41.17C58.6314 41.13 58.9014 41.0933 59.2081 41.06C59.5214 41.02 59.8348 40.99 60.1481 40.97C60.4614 40.9433 60.7448 40.93 60.9981 40.93ZM60.1981 45.04C60.3781 45.04 60.5781 45 60.7981 44.92C61.0248 44.8333 61.2414 44.7167 61.4481 44.57V43.79H60.1081C59.9281 43.7967 59.7981 43.8433 59.7181 43.93C59.6448 44.0167 59.6081 44.1333 59.6081 44.28V44.52C59.6081 44.8667 59.8048 45.04 60.1981 45.04ZM68.8614 41.06L67.5714 42.78C67.5114 42.88 67.4348 42.9733 67.3414 43.06C67.2481 43.1467 67.1714 43.2067 67.1114 43.24V43.27C67.1714 43.31 67.2481 43.3833 67.3414 43.49C67.4348 43.59 67.5114 43.6933 67.5714 43.8L69.0314 46H67.3814L65.9814 43.7H65.5014C65.5214 43.8333 65.5348 43.9633 65.5414 44.09C65.5548 44.2167 65.5614 44.3367 65.5614 44.45V46H64.0914V39H65.5614V41.89C65.5681 42.2033 65.5481 42.5067 65.5014 42.8H65.9814L67.2114 41.06H68.8614ZM74.4474 41.06L73.1574 42.78C73.0974 42.88 73.0207 42.9733 72.9274 43.06C72.834 43.1467 72.7574 43.2067 72.6974 43.24V43.27C72.7574 43.31 72.834 43.3833 72.9274 43.49C73.0207 43.59 73.0974 43.6933 73.1574 43.8L74.6174 46H72.9674L71.5674 43.7H71.0874C71.1074 43.8333 71.1207 43.9633 71.1274 44.09C71.1407 44.2167 71.1474 44.3367 71.1474 44.45V46H69.6774V39H71.1474V41.89C71.154 42.2033 71.134 42.5067 71.0874 42.8H71.5674L72.7974 41.06H74.4474ZM77.4175 40.93C78.2509 40.93 78.8475 41.0733 79.2075 41.36C79.5742 41.6467 79.7575 42.0667 79.7575 42.62C79.7642 43.0667 79.6509 43.4033 79.4175 43.63C79.1842 43.8567 78.7809 43.97 78.2075 43.97H76.4475C76.4875 44.3567 76.5975 44.6167 76.7775 44.75C76.9642 44.8833 77.2509 44.95 77.6375 44.95C77.8642 44.95 78.1442 44.9433 78.4775 44.93C78.8175 44.91 79.1575 44.88 79.4975 44.84L79.6375 45.75C79.3442 45.89 78.9975 45.9867 78.5975 46.04C78.2042 46.0933 77.8275 46.12 77.4675 46.12C76.5209 46.12 75.8509 45.9133 75.4575 45.5C75.0709 45.0867 74.8775 44.4333 74.8775 43.54C74.8775 42.8933 74.9609 42.38 75.1275 42C75.3009 41.62 75.5742 41.3467 75.9475 41.18C76.3209 41.0133 76.8109 40.93 77.4175 40.93ZM77.4675 41.97C77.2142 41.97 77.0109 42 76.8575 42.06C76.7109 42.12 76.6042 42.2367 76.5375 42.41C76.4709 42.5767 76.4309 42.82 76.4175 43.14H77.8075C78.0275 43.14 78.1675 43.0933 78.2275 43C78.2942 42.9067 78.3275 42.77 78.3275 42.59C78.3275 42.3567 78.2609 42.1967 78.1275 42.11C77.9942 42.0167 77.7742 41.97 77.4675 41.97ZM84.0321 41.06V42.03H82.6521V44.42C82.6521 44.6 82.6921 44.73 82.7721 44.81C82.8521 44.8833 82.9921 44.92 83.1921 44.92H83.8321L83.9921 45.92C83.8654 45.9667 83.7154 46.0033 83.5421 46.03C83.3687 46.0567 83.1954 46.0767 83.0221 46.09C82.8554 46.1033 82.7121 46.11 82.5921 46.11C82.1454 46.11 81.7954 45.9933 81.5421 45.76C81.2954 45.52 81.1721 45.1833 81.1721 44.75V42.03H80.3121V41.11L81.1721 41.07V39.69H82.6521V41.06H84.0321Z" fill="black"/>
<path d="M36.8801 58.696L36.6161 61.336H25.0001V58.696H26.6081C26.9441 56.808 27.7121 55.416 28.9121 54.52C30.1281 53.608 31.9281 53.152 34.3121 53.152C35.2561 53.152 36.0961 53.216 36.8321 53.344C37.5681 53.472 38.2081 53.624 38.7521 53.8L38.3441 57.352C38.2321 57.336 37.9921 57.32 37.6241 57.304C37.2721 57.272 36.8641 57.248 36.4001 57.232C35.9361 57.2 35.4801 57.192 35.0321 57.208C34.5841 57.208 34.2081 57.24 33.9041 57.304C33.4881 57.4 33.1361 57.552 32.8481 57.76C32.5761 57.968 32.3601 58.28 32.2001 58.696H36.8801ZM36.4721 62.056L36.2081 64.696H32.1521C32.3121 65.144 32.5281 65.48 32.8001 65.704C33.0881 65.928 33.4561 66.072 33.9041 66.136C34.2561 66.184 34.7201 66.216 35.2961 66.232C35.8721 66.232 36.4801 66.208 37.1201 66.16C37.7601 66.096 38.3281 66.024 38.8241 65.944L39.2081 69.496C38.6161 69.72 37.9121 69.904 37.0961 70.048C36.2961 70.208 35.3681 70.288 34.3121 70.288C31.9121 70.288 30.1121 69.832 28.9121 68.92C27.7121 68.008 26.9441 66.6 26.6081 64.696H24.9761V62.056H36.4721ZM49.2294 53.44V70H44.0454V59.632C44.0454 59.264 44.0534 58.904 44.0694 58.552C44.1014 58.2 44.1574 57.848 44.2374 57.496L40.4214 58.24L39.8214 55.048L44.0454 53.44H49.2294ZM58.0571 53.152C59.4011 53.152 60.5051 53.28 61.3691 53.536C62.2331 53.776 62.9051 54.2 63.3851 54.808C63.8651 55.416 64.2011 56.272 64.3931 57.376C64.5851 58.464 64.6811 59.864 64.6811 61.576C64.6811 63.464 64.5451 64.984 64.2731 66.136C64.0011 67.288 63.5691 68.168 62.9771 68.776C62.4011 69.368 61.6331 69.768 60.6731 69.976C59.7291 70.184 58.5691 70.288 57.1931 70.288C56.6971 70.288 56.0091 70.264 55.1291 70.216C54.2491 70.168 53.2971 70.016 52.2731 69.76L52.4891 66.64C53.0171 66.64 53.4891 66.648 53.9051 66.664C54.3211 66.664 54.7771 66.664 55.2731 66.664C55.7851 66.664 56.4251 66.664 57.1931 66.664C57.8331 66.664 58.3211 66.576 58.6571 66.4C59.0091 66.208 59.2571 65.888 59.4011 65.44C59.5451 64.976 59.6411 64.352 59.6891 63.568C59.2571 63.872 58.7851 64.088 58.2731 64.216C57.7611 64.328 57.1611 64.384 56.4731 64.384C55.2091 64.384 54.2251 64.176 53.5211 63.76C52.8171 63.344 52.3211 62.76 52.0331 62.008C51.7451 61.24 51.6011 60.352 51.6011 59.344C51.6011 57.872 51.7771 56.688 52.1291 55.792C52.4971 54.88 53.1451 54.216 54.0731 53.8C55.0171 53.368 56.3451 53.152 58.0571 53.152ZM56.4731 59.224C56.4731 59.976 56.5771 60.456 56.7851 60.664C56.9931 60.872 57.4171 60.976 58.0571 60.976C58.3771 60.976 58.6571 60.944 58.8971 60.88C59.1371 60.8 59.4091 60.688 59.7131 60.544C59.7131 59.44 59.6731 58.624 59.5931 58.096C59.5131 57.552 59.3531 57.2 59.1131 57.04C58.8731 56.864 58.5051 56.776 58.0091 56.776C57.5291 56.776 57.1771 56.848 56.9531 56.992C56.7451 57.136 56.6091 57.392 56.5451 57.76C56.4971 58.112 56.4731 58.6 56.4731 59.224ZM69.0827 65.56C69.7227 65.56 70.1627 65.688 70.4027 65.944C70.6587 66.184 70.7947 66.632 70.8107 67.288V68.824C70.8107 69.624 70.7467 70.312 70.6187 70.888C70.4907 71.48 70.3067 72.008 70.0667 72.472C69.8267 72.952 69.5387 73.424 69.2027 73.888L67.3307 73.288C67.5067 72.744 67.6187 72.192 67.6667 71.632C67.7307 71.088 67.7707 70.544 67.7867 70C66.8427 70 66.3547 69.488 66.3227 68.464L66.3947 67.288C66.4107 66.632 66.5387 66.184 66.7787 65.944C67.0187 65.688 67.4587 65.56 68.0987 65.56H69.0827Z" fill="#18191F"/>
<path d="M71.4358 53.98C71.9691 53.98 72.3991 54.0367 72.7258 54.15C73.0591 54.2567 73.3124 54.44 73.4858 54.7C73.6658 54.96 73.7891 55.3167 73.8558 55.77C73.9224 56.2233 73.9558 56.7933 73.9558 57.48C73.9558 58.26 73.9024 58.89 73.7958 59.37C73.6891 59.85 73.5191 60.2167 73.2858 60.47C73.0591 60.7233 72.7624 60.8967 72.3958 60.99C72.0291 61.0767 71.5824 61.12 71.0558 61.12C70.8758 61.12 70.6258 61.11 70.3058 61.09C69.9924 61.0767 69.6524 61.0233 69.2858 60.93L69.3758 59.96C69.5624 59.9667 69.7291 59.9733 69.8758 59.98C70.0291 59.98 70.1958 59.98 70.3758 59.98C70.5558 59.98 70.7824 59.9833 71.0558 59.99C71.4091 59.9833 71.6824 59.93 71.8758 59.83C72.0758 59.7233 72.2191 59.5333 72.3058 59.26C72.3991 58.9867 72.4558 58.6033 72.4758 58.11C72.2691 58.3033 72.0458 58.44 71.8058 58.52C71.5658 58.5933 71.2758 58.63 70.9358 58.63C70.4358 58.63 70.0424 58.54 69.7558 58.36C69.4758 58.1733 69.2758 57.9167 69.1558 57.59C69.0424 57.2633 68.9858 56.8833 68.9858 56.45C68.9858 55.8833 69.0558 55.42 69.1958 55.06C69.3424 54.6933 69.5924 54.4233 69.9458 54.25C70.3058 54.07 70.8024 53.98 71.4358 53.98ZM70.4258 56.43C70.4191 56.8367 70.4791 57.13 70.6058 57.31C70.7391 57.4833 70.9991 57.57 71.3858 57.57C71.5858 57.57 71.7658 57.5433 71.9258 57.49C72.0924 57.43 72.2791 57.33 72.4858 57.19C72.4858 56.6233 72.4658 56.19 72.4258 55.89C72.3858 55.59 72.2891 55.3867 72.1358 55.28C71.9891 55.1667 71.7524 55.11 71.4258 55.11C71.1324 55.11 70.9124 55.1567 70.7658 55.25C70.6258 55.3433 70.5324 55.4867 70.4858 55.68C70.4391 55.8733 70.4191 56.1233 70.4258 56.43ZM77.3342 53.98C77.8675 53.98 78.2975 54.0367 78.6242 54.15C78.9575 54.2567 79.2109 54.44 79.3842 54.7C79.5642 54.96 79.6875 55.3167 79.7542 55.77C79.8209 56.2233 79.8542 56.7933 79.8542 57.48C79.8542 58.26 79.8009 58.89 79.6942 59.37C79.5875 59.85 79.4175 60.2167 79.1842 60.47C78.9575 60.7233 78.6609 60.8967 78.2942 60.99C77.9275 61.0767 77.4809 61.12 76.9542 61.12C76.7742 61.12 76.5242 61.11 76.2042 61.09C75.8909 61.0767 75.5509 61.0233 75.1842 60.93L75.2742 59.96C75.4609 59.9667 75.6275 59.9733 75.7742 59.98C75.9275 59.98 76.0942 59.98 76.2742 59.98C76.4542 59.98 76.6809 59.9833 76.9542 59.99C77.3075 59.9833 77.5809 59.93 77.7742 59.83C77.9742 59.7233 78.1175 59.5333 78.2042 59.26C78.2975 58.9867 78.3542 58.6033 78.3742 58.11C78.1675 58.3033 77.9442 58.44 77.7042 58.52C77.4642 58.5933 77.1742 58.63 76.8342 58.63C76.3342 58.63 75.9409 58.54 75.6542 58.36C75.3742 58.1733 75.1742 57.9167 75.0542 57.59C74.9409 57.2633 74.8842 56.8833 74.8842 56.45C74.8842 55.8833 74.9542 55.42 75.0942 55.06C75.2409 54.6933 75.4909 54.4233 75.8442 54.25C76.2042 54.07 76.7009 53.98 77.3342 53.98ZM76.3242 56.43C76.3175 56.8367 76.3775 57.13 76.5042 57.31C76.6375 57.4833 76.8975 57.57 77.2842 57.57C77.4842 57.57 77.6642 57.5433 77.8242 57.49C77.9909 57.43 78.1775 57.33 78.3842 57.19C78.3842 56.6233 78.3642 56.19 78.3242 55.89C78.2842 55.59 78.1875 55.3867 78.0342 55.28C77.8875 55.1667 77.6509 55.11 77.3242 55.11C77.0309 55.11 76.8109 55.1567 76.6642 55.25C76.5242 55.3433 76.4309 55.4867 76.3842 55.68C76.3375 55.8733 76.3175 56.1233 76.3242 56.43Z" fill="#18191F"/>
<path fill-rule="evenodd" clip-rule="evenodd" d="M41.875 17.7916L50.5 13.9583L59.125 17.7916V23.5416C59.125 28.8604 55.445 33.8341 50.5 35.0416C45.555 33.8341 41.875 28.8604 41.875 23.5416V17.7916ZM57.2083 24.4904H50.4999V16.0571L43.7916 19.0375V24.5H50.4999V33.0579C54.0649 31.9558 56.7004 28.4388 57.2083 24.4904Z" fill="#006A93"/>
</svg>
