<svg width="100" height="100" viewBox="0 0 100 100" fill="none" xmlns="http://www.w3.org/2000/svg">
<rect x="0.5" y="0.5" width="99" height="99" fill="#F6F9FF" stroke="#284B63"/>
<path d="M0 1H29.6902L7.12565 9.61015L0 30.6902V1Z" fill="#284B63"/>
<path d="M99.6904 99.6902H70.0002L92.5648 91.08L99.6904 70V99.6902Z" fill="#284B63"/>
<path d="M13.4236 38.1C13.5503 38.1 13.6603 38.1367 13.7536 38.21C13.8536 38.2833 13.9203 38.38 13.9536 38.5L15.9536 45H14.3936L13.8836 43.17H11.5036L11.0036 45H9.44359L11.4436 38.5C11.4769 38.38 11.5403 38.2833 11.6336 38.21C11.7336 38.1367 11.8469 38.1 11.9736 38.1H13.4236ZM12.4136 39.92L11.8236 42.03H13.5636L12.9836 39.92C12.9503 39.8133 12.9203 39.7033 12.8936 39.59C12.8736 39.47 12.8536 39.3567 12.8336 39.25H12.5636C12.5436 39.3567 12.5203 39.47 12.4936 39.59C12.4669 39.7033 12.4403 39.8133 12.4136 39.92ZM18.247 39.94C18.547 39.9333 18.8337 39.9667 19.107 40.04C19.387 40.1133 19.6437 40.23 19.877 40.39C19.8504 40.0567 19.837 39.7067 19.837 39.34V38H21.317V45H20.147L20.017 44.23C19.817 44.4833 19.5604 44.6967 19.247 44.87C18.9404 45.0367 18.5704 45.12 18.137 45.12C17.5037 45.12 17.0504 44.8967 16.777 44.45C16.5104 43.9967 16.377 43.3433 16.377 42.49C16.377 41.8367 16.447 41.3233 16.587 40.95C16.727 40.5767 16.9337 40.3133 17.207 40.16C17.487 40.0067 17.8337 39.9333 18.247 39.94ZM17.897 42.48C17.897 42.8733 17.9237 43.1733 17.977 43.38C18.037 43.5867 18.127 43.7267 18.247 43.8C18.367 43.8733 18.527 43.91 18.727 43.91C18.9537 43.91 19.1437 43.8767 19.297 43.81C19.457 43.7433 19.637 43.6433 19.837 43.51V41.19C19.657 41.1367 19.4837 41.09 19.317 41.05C19.157 41.01 18.9737 40.99 18.767 40.99C18.5604 40.99 18.3904 41.0267 18.257 41.1C18.1304 41.1733 18.037 41.3167 17.977 41.53C17.9237 41.7433 17.897 42.06 17.897 42.48ZM27.4941 40.06L25.8641 44.65C25.7841 44.8833 25.6241 45 25.3841 45H24.1041C23.8574 45 23.6974 44.8833 23.6241 44.65L21.9941 40.06H23.5541L24.4641 43.15C24.5041 43.2967 24.5407 43.4467 24.5741 43.6C24.6074 43.7533 24.6407 43.9 24.6741 44.04H24.8041C24.8374 43.8933 24.8741 43.7467 24.9141 43.6C24.9541 43.4467 24.9941 43.2967 25.0341 43.15L25.9341 40.06H27.4941ZM30.71 39.93C31.33 39.93 31.8067 40.06 32.14 40.32C32.4733 40.58 32.64 41.05 32.64 41.73V45H31.47L31.31 44.22C31.13 44.4267 30.8867 44.6267 30.58 44.82C30.2733 45.0133 29.8967 45.11 29.45 45.11C29.0033 45.11 28.6267 44.9933 28.32 44.76C28.0133 44.5267 27.86 44.18 27.86 43.72V43.21C27.86 42.8167 27.9933 42.51 28.26 42.29C28.5267 42.07 28.8933 41.96 29.36 41.96H31.16V41.73C31.1533 41.49 31.0933 41.32 30.98 41.22C30.8733 41.1133 30.67 41.06 30.37 41.06C30.11 41.06 29.79 41.07 29.41 41.09C29.03 41.1033 28.64 41.1233 28.24 41.15L28.11 40.17C28.3433 40.13 28.6133 40.0933 28.92 40.06C29.2333 40.02 29.5467 39.99 29.86 39.97C30.1733 39.9433 30.4567 39.93 30.71 39.93ZM29.91 44.04C30.09 44.04 30.29 44 30.51 43.92C30.7367 43.8333 30.9533 43.7167 31.16 43.57V42.79H29.82C29.64 42.7967 29.51 42.8433 29.43 42.93C29.3567 43.0167 29.32 43.1333 29.32 43.28V43.52C29.32 43.8667 29.5167 44.04 29.91 44.04ZM34.9834 40.06L35.1134 40.81C35.82 40.2233 36.5267 39.93 37.2334 39.93C38.1667 39.93 38.6334 40.3867 38.6334 41.3V45H37.1534V41.76C37.1534 41.54 37.1134 41.39 37.0334 41.31C36.9534 41.2233 36.8167 41.18 36.6234 41.18C36.4234 41.18 36.22 41.2167 36.0134 41.29C35.8067 41.3567 35.56 41.4633 35.2734 41.61V45H33.8034V40.06H34.9834ZM42.0992 39.93C42.3592 39.93 42.6626 39.9533 43.0092 40C43.3559 40.04 43.6626 40.1167 43.9292 40.23L43.7692 41.16C43.5026 41.1467 43.2459 41.14 42.9992 41.14C42.7592 41.1333 42.5426 41.13 42.3492 41.13C42.0492 41.13 41.8126 41.17 41.6392 41.25C41.4659 41.33 41.3392 41.4733 41.2592 41.68C41.1859 41.88 41.1492 42.16 41.1492 42.52C41.1492 42.8933 41.1859 43.1833 41.2592 43.39C41.3392 43.59 41.4659 43.73 41.6392 43.81C41.8126 43.89 42.0492 43.93 42.3492 43.93C42.5092 43.93 42.7326 43.9267 43.0192 43.92C43.3059 43.9067 43.5892 43.88 43.8692 43.84L44.0092 44.78C43.7426 44.9 43.4392 44.9867 43.0992 45.04C42.7592 45.0933 42.4226 45.12 42.0892 45.12C41.4826 45.12 40.9959 45.0367 40.6292 44.87C40.2626 44.7033 39.9992 44.43 39.8392 44.05C39.6792 43.67 39.5992 43.16 39.5992 42.52C39.5992 41.8867 39.6792 41.3833 39.8392 41.01C40.0059 40.63 40.2726 40.3567 40.6392 40.19C41.0059 40.0167 41.4926 39.93 42.0992 39.93ZM47.1587 39.93C47.9921 39.93 48.5888 40.0733 48.9488 40.36C49.3154 40.6467 49.4987 41.0667 49.4987 41.62C49.5054 42.0667 49.3921 42.4033 49.1588 42.63C48.9254 42.8567 48.5221 42.97 47.9488 42.97H46.1888C46.2288 43.3567 46.3388 43.6167 46.5188 43.75C46.7054 43.8833 46.9921 43.95 47.3788 43.95C47.6054 43.95 47.8854 43.9433 48.2188 43.93C48.5588 43.91 48.8988 43.88 49.2388 43.84L49.3788 44.75C49.0854 44.89 48.7388 44.9867 48.3388 45.04C47.9454 45.0933 47.5688 45.12 47.2088 45.12C46.2621 45.12 45.5921 44.9133 45.1988 44.5C44.8121 44.0867 44.6188 43.4333 44.6188 42.54C44.6188 41.8933 44.7021 41.38 44.8688 41C45.0421 40.62 45.3154 40.3467 45.6887 40.18C46.0621 40.0133 46.5521 39.93 47.1587 39.93ZM47.2088 40.97C46.9554 40.97 46.7521 41 46.5988 41.06C46.4521 41.12 46.3454 41.2367 46.2788 41.41C46.2121 41.5767 46.1721 41.82 46.1588 42.14H47.5488C47.7688 42.14 47.9088 42.0933 47.9688 42C48.0354 41.9067 48.0688 41.77 48.0688 41.59C48.0688 41.3567 48.0021 41.1967 47.8688 41.11C47.7354 41.0167 47.5154 40.97 47.2088 40.97ZM52.1533 39.94C52.4533 39.9333 52.7399 39.9667 53.0133 40.04C53.2933 40.1133 53.5499 40.23 53.7833 40.39C53.7566 40.0567 53.7433 39.7067 53.7433 39.34V38H55.2233V45H54.0533L53.9233 44.23C53.7233 44.4833 53.4666 44.6967 53.1533 44.87C52.8466 45.0367 52.4766 45.12 52.0433 45.12C51.4099 45.12 50.9566 44.8967 50.6833 44.45C50.4166 43.9967 50.2833 43.3433 50.2833 42.49C50.2833 41.8367 50.3533 41.3233 50.4933 40.95C50.6333 40.5767 50.8399 40.3133 51.1133 40.16C51.3933 40.0067 51.7399 39.9333 52.1533 39.94ZM51.8033 42.48C51.8033 42.8733 51.8299 43.1733 51.8833 43.38C51.9433 43.5867 52.0333 43.7267 52.1533 43.8C52.2733 43.8733 52.4333 43.91 52.6333 43.91C52.8599 43.91 53.0499 43.8767 53.2033 43.81C53.3633 43.7433 53.5433 43.6433 53.7433 43.51V41.19C53.5633 41.1367 53.3899 41.09 53.2233 41.05C53.0633 41.01 52.8799 40.99 52.6733 40.99C52.4666 40.99 52.2966 41.0267 52.1633 41.1C52.0366 41.1733 51.9433 41.3167 51.8833 41.53C51.8299 41.7433 51.8033 42.06 51.8033 42.48Z" fill="#284B63"/>
<path d="M61.3283 38C61.9683 38 62.4716 38.0667 62.8383 38.2C63.2116 38.3333 63.4749 38.5633 63.6283 38.89C63.7883 39.2167 63.8683 39.6733 63.8683 40.26C63.8683 40.8467 63.7916 41.3033 63.6383 41.63C63.4916 41.9567 63.2449 42.1833 62.8983 42.31C62.5583 42.4367 62.1016 42.5033 61.5283 42.51C61.3016 42.5033 61.0749 42.4933 60.8483 42.48C60.6283 42.4667 60.4149 42.45 60.2083 42.43V45H58.6883V38.1C58.9616 38.0733 59.2216 38.0533 59.4683 38.04C59.7149 38.0267 59.9816 38.0167 60.2683 38.01C60.5616 38.0033 60.9149 38 61.3283 38ZM61.2983 39.15C61.0983 39.15 60.9049 39.15 60.7183 39.15C60.5383 39.15 60.3683 39.15 60.2083 39.15V41.36H61.2983C61.6983 41.36 61.9716 41.2867 62.1183 41.14C62.2649 40.9933 62.3383 40.7 62.3383 40.26C62.3383 39.82 62.2649 39.5267 62.1183 39.38C61.9716 39.2267 61.6983 39.15 61.2983 39.15ZM67.3409 39.93C67.9609 39.93 68.4375 40.06 68.7709 40.32C69.1042 40.58 69.2709 41.05 69.2709 41.73V45H68.1009L67.9409 44.22C67.7609 44.4267 67.5175 44.6267 67.2109 44.82C66.9042 45.0133 66.5275 45.11 66.0809 45.11C65.6342 45.11 65.2575 44.9933 64.9509 44.76C64.6442 44.5267 64.4909 44.18 64.4909 43.72V43.21C64.4909 42.8167 64.6242 42.51 64.8909 42.29C65.1575 42.07 65.5242 41.96 65.9909 41.96H67.7909V41.73C67.7842 41.49 67.7242 41.32 67.6109 41.22C67.5042 41.1133 67.3009 41.06 67.0009 41.06C66.7409 41.06 66.4209 41.07 66.0409 41.09C65.6609 41.1033 65.2709 41.1233 64.8709 41.15L64.7409 40.17C64.9742 40.13 65.2442 40.0933 65.5509 40.06C65.8642 40.02 66.1775 39.99 66.4909 39.97C66.8042 39.9433 67.0875 39.93 67.3409 39.93ZM66.5409 44.04C66.7209 44.04 66.9209 44 67.1409 43.92C67.3675 43.8333 67.5842 43.7167 67.7909 43.57V42.79H66.4509C66.2709 42.7967 66.1409 42.8433 66.0609 42.93C65.9875 43.0167 65.9509 43.1333 65.9509 43.28V43.52C65.9509 43.8667 66.1475 44.04 66.5409 44.04ZM75.2042 40.06L73.9142 41.78C73.8542 41.88 73.7776 41.9733 73.6842 42.06C73.5909 42.1467 73.5142 42.2067 73.4542 42.24V42.27C73.5142 42.31 73.5909 42.3833 73.6842 42.49C73.7776 42.59 73.8542 42.6933 73.9142 42.8L75.3742 45H73.7242L72.3242 42.7H71.8442C71.8642 42.8333 71.8776 42.9633 71.8842 43.09C71.8976 43.2167 71.9042 43.3367 71.9042 43.45V45H70.4342V38H71.9042V40.89C71.9109 41.2033 71.8909 41.5067 71.8442 41.8H72.3242L73.5542 40.06H75.2042ZM80.7902 40.06L79.5002 41.78C79.4402 41.88 79.3635 41.9733 79.2702 42.06C79.1768 42.1467 79.1002 42.2067 79.0402 42.24V42.27C79.1002 42.31 79.1768 42.3833 79.2702 42.49C79.3635 42.59 79.4402 42.6933 79.5002 42.8L80.9602 45H79.3102L77.9102 42.7H77.4302C77.4502 42.8333 77.4635 42.9633 77.4702 43.09C77.4835 43.2167 77.4902 43.3367 77.4902 43.45V45H76.0202V38H77.4902V40.89C77.4968 41.2033 77.4768 41.5067 77.4302 41.8H77.9102L79.1402 40.06H80.7902ZM83.7603 39.93C84.5936 39.93 85.1903 40.0733 85.5503 40.36C85.917 40.6467 86.1003 41.0667 86.1003 41.62C86.107 42.0667 85.9936 42.4033 85.7603 42.63C85.527 42.8567 85.1236 42.97 84.5503 42.97H82.7903C82.8303 43.3567 82.9403 43.6167 83.1203 43.75C83.307 43.8833 83.5936 43.95 83.9803 43.95C84.207 43.95 84.487 43.9433 84.8203 43.93C85.1603 43.91 85.5003 43.88 85.8403 43.84L85.9803 44.75C85.687 44.89 85.3403 44.9867 84.9403 45.04C84.547 45.0933 84.1703 45.12 83.8103 45.12C82.8636 45.12 82.1936 44.9133 81.8003 44.5C81.4136 44.0867 81.2203 43.4333 81.2203 42.54C81.2203 41.8933 81.3036 41.38 81.4703 41C81.6436 40.62 81.917 40.3467 82.2903 40.18C82.6636 40.0133 83.1536 39.93 83.7603 39.93ZM83.8103 40.97C83.557 40.97 83.3536 41 83.2003 41.06C83.0536 41.12 82.947 41.2367 82.8803 41.41C82.8136 41.5767 82.7736 41.82 82.7603 42.14H84.1503C84.3703 42.14 84.5103 42.0933 84.5703 42C84.637 41.9067 84.6703 41.77 84.6703 41.59C84.6703 41.3567 84.6036 41.1967 84.4703 41.11C84.337 41.0167 84.117 40.97 83.8103 40.97ZM90.3748 40.06V41.03H88.9948V43.42C88.9948 43.6 89.0348 43.73 89.1148 43.81C89.1948 43.8833 89.3348 43.92 89.5348 43.92H90.1748L90.3348 44.92C90.2082 44.9667 90.0582 45.0033 89.8848 45.03C89.7115 45.0567 89.5382 45.0767 89.3648 45.09C89.1982 45.1033 89.0548 45.11 88.9348 45.11C88.4882 45.11 88.1382 44.9933 87.8848 44.76C87.6382 44.52 87.5148 44.1833 87.5148 43.75V41.03H86.6548V40.11L87.5148 40.07V38.69H88.9948V40.06H90.3748Z" fill="black"/>
<path d="M34.2083 57.696L33.9443 60.336H22.3283V57.696H23.9363C24.2723 55.808 25.0403 54.416 26.2403 53.52C27.4563 52.608 29.2563 52.152 31.6403 52.152C32.5843 52.152 33.4243 52.216 34.1603 52.344C34.8963 52.472 35.5363 52.624 36.0803 52.8L35.6723 56.352C35.5603 56.336 35.3203 56.32 34.9523 56.304C34.6003 56.272 34.1923 56.248 33.7283 56.232C33.2643 56.2 32.8083 56.192 32.3603 56.208C31.9123 56.208 31.5363 56.24 31.2323 56.304C30.8163 56.4 30.4643 56.552 30.1763 56.76C29.9043 56.968 29.6883 57.28 29.5283 57.696H34.2083ZM33.8003 61.056L33.5363 63.696H29.4803C29.6403 64.144 29.8563 64.48 30.1283 64.704C30.4163 64.928 30.7843 65.072 31.2323 65.136C31.5843 65.184 32.0483 65.216 32.6243 65.232C33.2003 65.232 33.8083 65.208 34.4483 65.16C35.0883 65.096 35.6563 65.024 36.1523 64.944L36.5363 68.496C35.9443 68.72 35.2403 68.904 34.4243 69.048C33.6243 69.208 32.6963 69.288 31.6403 69.288C29.2403 69.288 27.4403 68.832 26.2403 67.92C25.0403 67.008 24.2723 65.6 23.9363 63.696H22.3043V61.056H33.8003ZM44.7816 52.104C46.1096 52.104 47.1896 52.192 48.0216 52.368C48.8536 52.544 49.4936 52.816 49.9416 53.184C50.4056 53.536 50.7176 53.992 50.8776 54.552C51.0536 55.112 51.1416 55.784 51.1416 56.568C51.1416 57.128 51.0536 57.688 50.8776 58.248C50.7016 58.808 50.4216 59.288 50.0376 59.688C49.6696 60.072 49.1736 60.296 48.5496 60.36V60.456C49.3816 60.52 50.0136 60.776 50.4456 61.224C50.8776 61.656 51.1736 62.2 51.3336 62.856C51.4936 63.496 51.5736 64.168 51.5736 64.872C51.5736 65.976 51.3896 66.856 51.0216 67.512C50.6536 68.168 49.9736 68.64 48.9816 68.928C48.0056 69.2 46.6056 69.336 44.7816 69.336C42.9896 69.336 41.5976 69.2 40.6056 68.928C39.6296 68.64 38.9496 68.168 38.5656 67.512C38.1816 66.856 37.9896 65.976 37.9896 64.872C37.9896 64.168 38.0696 63.496 38.2296 62.856C38.3896 62.2 38.6856 61.656 39.1176 61.224C39.5496 60.776 40.1816 60.52 41.0136 60.456V60.36C40.4056 60.296 39.9096 60.072 39.5256 59.688C39.1416 59.288 38.8616 58.808 38.6856 58.248C38.5096 57.688 38.4216 57.128 38.4216 56.568C38.4216 55.784 38.5096 55.112 38.6856 54.552C38.8616 53.992 39.1736 53.536 39.6216 53.184C40.0856 52.816 40.7336 52.544 41.5656 52.368C42.3976 52.192 43.4696 52.104 44.7816 52.104ZM44.8056 55.464C44.1176 55.464 43.6536 55.576 43.4136 55.8C43.1896 56.008 43.0776 56.496 43.0776 57.264C43.0776 57.904 43.1976 58.328 43.4376 58.536C43.6776 58.728 44.1496 58.824 44.8536 58.824C45.5416 58.824 45.9816 58.728 46.1736 58.536C46.3816 58.328 46.4856 57.904 46.4856 57.264C46.4856 56.496 46.3736 56.008 46.1496 55.8C45.9416 55.576 45.4936 55.464 44.8056 55.464ZM44.8296 61.992C44.2856 61.992 43.8696 62.04 43.5816 62.136C43.3096 62.232 43.1176 62.424 43.0056 62.712C42.9096 62.984 42.8616 63.384 42.8616 63.912C42.8616 64.648 42.9896 65.136 43.2456 65.376C43.5016 65.6 44.0216 65.712 44.8056 65.712C45.5736 65.712 46.0776 65.6 46.3176 65.376C46.5576 65.136 46.6776 64.648 46.6776 63.912C46.6776 63.112 46.5576 62.592 46.3176 62.352C46.0776 62.112 45.5816 61.992 44.8296 61.992ZM60.3017 52.104C62.0617 52.104 63.4617 52.368 64.5017 52.896C65.5417 53.408 66.2857 54.296 66.7337 55.56C67.1817 56.808 67.4057 58.528 67.4057 60.72C67.4057 62.912 67.1817 64.64 66.7337 65.904C66.2857 67.152 65.5417 68.04 64.5017 68.568C63.4617 69.08 62.0617 69.336 60.3017 69.336C58.5577 69.336 57.1657 69.08 56.1257 68.568C55.1017 68.04 54.3657 67.152 53.9177 65.904C53.4697 64.64 53.2457 62.912 53.2457 60.72C53.2457 58.528 53.4697 56.808 53.9177 55.56C54.3657 54.296 55.1017 53.408 56.1257 52.896C57.1657 52.368 58.5577 52.104 60.3017 52.104ZM60.2777 55.968C59.8937 55.968 59.5817 56.024 59.3417 56.136C59.1017 56.232 58.9097 56.44 58.7657 56.76C58.6377 57.064 58.5417 57.536 58.4777 58.176C58.4297 58.8 58.4057 59.648 58.4057 60.72C58.4057 61.792 58.4297 62.648 58.4777 63.288C58.5417 63.912 58.6377 64.384 58.7657 64.704C58.9097 65.008 59.1017 65.216 59.3417 65.328C59.5817 65.424 59.8937 65.472 60.2777 65.472C60.6777 65.472 61.0057 65.424 61.2617 65.328C61.5177 65.216 61.7177 65.008 61.8617 64.704C62.0057 64.384 62.1017 63.912 62.1497 63.288C62.2137 62.648 62.2457 61.792 62.2457 60.72C62.2457 59.648 62.2137 58.8 62.1497 58.176C62.1017 57.536 62.0057 57.064 61.8617 56.76C61.7177 56.44 61.5177 56.232 61.2617 56.136C61.0057 56.024 60.6777 55.968 60.2777 55.968ZM71.7546 64.56C72.3946 64.56 72.8346 64.688 73.0746 64.944C73.3306 65.184 73.4666 65.632 73.4826 66.288V67.824C73.4826 68.624 73.4186 69.312 73.2906 69.888C73.1626 70.48 72.9786 71.008 72.7386 71.472C72.4986 71.952 72.2106 72.424 71.8746 72.888L70.0026 72.288C70.1786 71.744 70.2906 71.192 70.3386 70.632C70.4026 70.088 70.4426 69.544 70.4586 69C69.5146 69 69.0266 68.488 68.9946 67.464L69.0666 66.288C69.0826 65.632 69.2106 65.184 69.4506 64.944C69.6906 64.688 70.1306 64.56 70.7706 64.56H71.7546Z" fill="#18191F"/>
<path d="M71.3512 52.96C72.0112 52.96 72.5345 53.0767 72.9212 53.31C73.3145 53.5433 73.5945 53.9233 73.7612 54.45C73.9345 54.97 74.0212 55.67 74.0212 56.55C74.0212 57.43 73.9345 58.1333 73.7612 58.66C73.5945 59.18 73.3145 59.5567 72.9212 59.79C72.5345 60.0167 72.0112 60.13 71.3512 60.13C70.6912 60.13 70.1645 60.0167 69.7712 59.79C69.3845 59.5567 69.1078 59.18 68.9412 58.66C68.7745 58.1333 68.6912 57.43 68.6912 56.55C68.6912 55.67 68.7745 54.97 68.9412 54.45C69.1078 53.9233 69.3845 53.5433 69.7712 53.31C70.1645 53.0767 70.6912 52.96 71.3512 52.96ZM71.3412 54.15C71.0478 54.15 70.8178 54.22 70.6512 54.36C70.4845 54.4933 70.3678 54.7333 70.3012 55.08C70.2345 55.42 70.2012 55.91 70.2012 56.55C70.2012 57.19 70.2345 57.6833 70.3012 58.03C70.3678 58.37 70.4845 58.6067 70.6512 58.74C70.8178 58.8733 71.0478 58.94 71.3412 58.94C71.6412 58.94 71.8745 58.8733 72.0412 58.74C72.2145 58.6067 72.3345 58.37 72.4012 58.03C72.4745 57.6833 72.5112 57.19 72.5112 56.55C72.5112 55.91 72.4745 55.42 72.4012 55.08C72.3345 54.7333 72.2145 54.4933 72.0412 54.36C71.8745 54.22 71.6412 54.15 71.3412 54.15ZM77.65 52.96C78.31 52.96 78.8333 53.0767 79.22 53.31C79.6133 53.5433 79.8933 53.9233 80.06 54.45C80.2333 54.97 80.32 55.67 80.32 56.55C80.32 57.43 80.2333 58.1333 80.06 58.66C79.8933 59.18 79.6133 59.5567 79.22 59.79C78.8333 60.0167 78.31 60.13 77.65 60.13C76.99 60.13 76.4633 60.0167 76.07 59.79C75.6833 59.5567 75.4067 59.18 75.24 58.66C75.0733 58.1333 74.99 57.43 74.99 56.55C74.99 55.67 75.0733 54.97 75.24 54.45C75.4067 53.9233 75.6833 53.5433 76.07 53.31C76.4633 53.0767 76.99 52.96 77.65 52.96ZM77.64 54.15C77.3467 54.15 77.1167 54.22 76.95 54.36C76.7833 54.4933 76.6667 54.7333 76.6 55.08C76.5333 55.42 76.5 55.91 76.5 56.55C76.5 57.19 76.5333 57.6833 76.6 58.03C76.6667 58.37 76.7833 58.6067 76.95 58.74C77.1167 58.8733 77.3467 58.94 77.64 58.94C77.94 58.94 78.1733 58.8733 78.34 58.74C78.5133 58.6067 78.6333 58.37 78.7 58.03C78.7733 57.6833 78.81 57.19 78.81 56.55C78.81 55.91 78.7733 55.42 78.7 55.08C78.6333 54.7333 78.5133 54.4933 78.34 54.36C78.1733 54.22 77.94 54.15 77.64 54.15Z" fill="#18191F"/>
<path fill-rule="evenodd" clip-rule="evenodd" d="M55.5312 13.5333C54.3404 13.5333 53.375 14.5631 53.375 15.8333C53.375 17.1036 54.3404 18.1333 55.5312 18.1333C56.7221 18.1333 57.6875 17.1036 57.6875 15.8333C57.6875 14.5631 56.7221 13.5333 55.5312 13.5333ZM52.0094 15.0667C52.3424 13.3169 53.7926 12 55.5312 12C57.2699 12 58.7201 13.3169 59.0531 15.0667H62V16.6H59.0531C58.7201 18.3497 57.2699 19.6667 55.5312 19.6667C53.7926 19.6667 52.3424 18.3497 52.0094 16.6H39V15.0667H52.0094ZM45.4688 21.2C44.2779 21.2 43.3125 22.2297 43.3125 23.5C43.3125 24.7703 44.2779 25.8 45.4688 25.8C46.6596 25.8 47.625 24.7703 47.625 23.5C47.625 22.2297 46.6596 21.2 45.4688 21.2ZM41.9469 22.7333C42.2799 20.9836 43.7301 19.6667 45.4688 19.6667C47.2074 19.6667 48.6576 20.9836 48.9906 22.7333H62V24.2667H48.9906C48.6576 26.0164 47.2074 27.3333 45.4688 27.3333C43.7301 27.3333 42.2799 26.0164 41.9469 24.2667H39V22.7333H41.9469ZM55.5312 28.8667C54.3404 28.8667 53.375 29.8964 53.375 31.1667C53.375 32.4369 54.3404 33.4667 55.5312 33.4667C56.7221 33.4667 57.6875 32.4369 57.6875 31.1667C57.6875 29.8964 56.7221 28.8667 55.5312 28.8667ZM52.0094 30.4C52.3424 28.6503 53.7926 27.3333 55.5312 27.3333C57.2699 27.3333 58.7201 28.6503 59.0531 30.4H62V31.9333H59.0531C58.7201 33.6831 57.2699 35 55.5312 35C53.7926 35 52.3424 33.6831 52.0094 31.9333H39V30.4H52.0094Z" fill="#284B63"/>
</svg>
