<svg width="100" height="100" viewBox="0 0 100 100" fill="none" xmlns="http://www.w3.org/2000/svg">
<rect x="0.5" y="0.5" width="99" height="99" fill="#F6F9FF" stroke="#C0392B"/>
<path d="M0 0H29.6902L7.12565 8.61015L0 29.6902V0Z" fill="#C0392B"/>
<path d="M99.6904 99.6902H70.0002L92.5648 91.08L99.6904 70V99.6902Z" fill="#C0392B"/>
<path d="M27.8371 39C28.4771 39 28.9804 39.0667 29.3471 39.2C29.7204 39.3333 29.9837 39.5633 30.1371 39.89C30.2971 40.2167 30.3771 40.6733 30.3771 41.26C30.3771 41.8467 30.3004 42.3033 30.1471 42.63C30.0004 42.9567 29.7537 43.1833 29.4071 43.31C29.0671 43.4367 28.6104 43.5033 28.0371 43.51C27.8104 43.5033 27.5837 43.4933 27.3571 43.48C27.1371 43.4667 26.9237 43.45 26.7171 43.43V46H25.1971V39.1C25.4704 39.0733 25.7304 39.0533 25.9771 39.04C26.2237 39.0267 26.4904 39.0167 26.7771 39.01C27.0704 39.0033 27.4237 39 27.8371 39ZM27.8071 40.15C27.6071 40.15 27.4137 40.15 27.2271 40.15C27.0471 40.15 26.8771 40.15 26.7171 40.15V42.36H27.8071C28.2071 42.36 28.4804 42.2867 28.6271 42.14C28.7737 41.9933 28.8471 41.7 28.8471 41.26C28.8471 40.82 28.7737 40.5267 28.6271 40.38C28.4804 40.2267 28.2071 40.15 27.8071 40.15ZM32.4387 41.06L32.5787 41.81C33.2587 41.2233 33.9287 40.93 34.5887 40.93H34.8487L34.7087 42.29H34.2987C34.0854 42.29 33.8587 42.32 33.6187 42.38C33.3854 42.44 33.0987 42.53 32.7587 42.65V46H31.2887V41.06H32.4387ZM37.8084 40.93C38.4284 40.93 38.9251 41.0167 39.2984 41.19C39.6717 41.3567 39.9384 41.6333 40.0984 42.02C40.2651 42.4 40.3484 42.9067 40.3484 43.54C40.3484 44.1733 40.2651 44.68 40.0984 45.06C39.9384 45.4333 39.6717 45.7033 39.2984 45.87C38.9251 46.0367 38.4284 46.12 37.8084 46.12C37.1884 46.12 36.6917 46.0367 36.3184 45.87C35.9451 45.7033 35.6751 45.4333 35.5084 45.06C35.3484 44.68 35.2684 44.1733 35.2684 43.54C35.2684 42.9067 35.3484 42.4 35.5084 42.02C35.6751 41.6333 35.9451 41.3567 36.3184 41.19C36.6917 41.0167 37.1884 40.93 37.8084 40.93ZM37.8084 42C37.5484 42 37.3451 42.0433 37.1984 42.13C37.0584 42.2167 36.9584 42.3733 36.8984 42.6C36.8384 42.82 36.8084 43.1333 36.8084 43.54C36.8084 43.94 36.8384 44.25 36.8984 44.47C36.9584 44.69 37.0584 44.8433 37.1984 44.93C37.3451 45.01 37.5484 45.05 37.8084 45.05C38.0684 45.05 38.2684 45.01 38.4084 44.93C38.5551 44.8433 38.6584 44.69 38.7184 44.47C38.7784 44.25 38.8084 43.94 38.8084 43.54C38.8084 43.1333 38.7784 42.82 38.7184 42.6C38.6584 42.3733 38.5551 42.2167 38.4084 42.13C38.2684 42.0433 38.0684 42 37.8084 42Z" fill="#C0392B"/>
<path d="M46.2648 39C46.9048 39 47.4081 39.0667 47.7748 39.2C48.1481 39.3333 48.4115 39.5633 48.5648 39.89C48.7248 40.2167 48.8048 40.6733 48.8048 41.26C48.8048 41.8467 48.7281 42.3033 48.5748 42.63C48.4281 42.9567 48.1815 43.1833 47.8348 43.31C47.4948 43.4367 47.0381 43.5033 46.4648 43.51C46.2381 43.5033 46.0115 43.4933 45.7848 43.48C45.5648 43.4667 45.3515 43.45 45.1448 43.43V46H43.6248V39.1C43.8981 39.0733 44.1581 39.0533 44.4048 39.04C44.6515 39.0267 44.9181 39.0167 45.2048 39.01C45.4981 39.0033 45.8515 39 46.2648 39ZM46.2348 40.15C46.0348 40.15 45.8415 40.15 45.6548 40.15C45.4748 40.15 45.3048 40.15 45.1448 40.15V42.36H46.2348C46.6348 42.36 46.9081 42.2867 47.0548 42.14C47.2015 41.9933 47.2748 41.7 47.2748 41.26C47.2748 40.82 47.2015 40.5267 47.0548 40.38C46.9081 40.2267 46.6348 40.15 46.2348 40.15ZM52.2774 40.93C52.8974 40.93 53.374 41.06 53.7074 41.32C54.0407 41.58 54.2074 42.05 54.2074 42.73V46H53.0374L52.8774 45.22C52.6974 45.4267 52.454 45.6267 52.1474 45.82C51.8407 46.0133 51.464 46.11 51.0174 46.11C50.5707 46.11 50.194 45.9933 49.8874 45.76C49.5807 45.5267 49.4274 45.18 49.4274 44.72V44.21C49.4274 43.8167 49.5607 43.51 49.8274 43.29C50.094 43.07 50.4607 42.96 50.9274 42.96H52.7274V42.73C52.7207 42.49 52.6607 42.32 52.5474 42.22C52.4407 42.1133 52.2374 42.06 51.9374 42.06C51.6774 42.06 51.3574 42.07 50.9774 42.09C50.5974 42.1033 50.2074 42.1233 49.8074 42.15L49.6774 41.17C49.9107 41.13 50.1807 41.0933 50.4874 41.06C50.8007 41.02 51.114 40.99 51.4274 40.97C51.7407 40.9433 52.024 40.93 52.2774 40.93ZM51.4774 45.04C51.6574 45.04 51.8574 45 52.0774 44.92C52.304 44.8333 52.5207 44.7167 52.7274 44.57V43.79H51.3874C51.2074 43.7967 51.0774 43.8433 50.9974 43.93C50.924 44.0167 50.8874 44.1333 50.8874 44.28V44.52C50.8874 44.8667 51.084 45.04 51.4774 45.04ZM60.1407 41.06L58.8507 42.78C58.7907 42.88 58.7141 42.9733 58.6207 43.06C58.5274 43.1467 58.4507 43.2067 58.3907 43.24V43.27C58.4507 43.31 58.5274 43.3833 58.6207 43.49C58.7141 43.59 58.7907 43.6933 58.8507 43.8L60.3107 46H58.6607L57.2607 43.7H56.7807C56.8007 43.8333 56.8141 43.9633 56.8207 44.09C56.8341 44.2167 56.8407 44.3367 56.8407 44.45V46H55.3707V39H56.8407V41.89C56.8474 42.2033 56.8274 42.5067 56.7807 42.8H57.2607L58.4907 41.06H60.1407ZM65.7267 41.06L64.4367 42.78C64.3767 42.88 64.3 42.9733 64.2067 43.06C64.1133 43.1467 64.0367 43.2067 63.9767 43.24V43.27C64.0367 43.31 64.1133 43.3833 64.2067 43.49C64.3 43.59 64.3767 43.6933 64.4367 43.8L65.8967 46H64.2467L62.8467 43.7H62.3667C62.3867 43.8333 62.4 43.9633 62.4067 44.09C62.42 44.2167 62.4267 44.3367 62.4267 44.45V46H60.9567V39H62.4267V41.89C62.4333 42.2033 62.4133 42.5067 62.3667 42.8H62.8467L64.0767 41.06H65.7267ZM68.6968 40.93C69.5302 40.93 70.1268 41.0733 70.4868 41.36C70.8535 41.6467 71.0368 42.0667 71.0368 42.62C71.0435 43.0667 70.9302 43.4033 70.6968 43.63C70.4635 43.8567 70.0602 43.97 69.4868 43.97H67.7268C67.7668 44.3567 67.8768 44.6167 68.0568 44.75C68.2435 44.8833 68.5302 44.95 68.9168 44.95C69.1435 44.95 69.4235 44.9433 69.7568 44.93C70.0968 44.91 70.4368 44.88 70.7768 44.84L70.9168 45.75C70.6235 45.89 70.2768 45.9867 69.8768 46.04C69.4835 46.0933 69.1068 46.12 68.7468 46.12C67.8002 46.12 67.1302 45.9133 66.7368 45.5C66.3502 45.0867 66.1568 44.4333 66.1568 43.54C66.1568 42.8933 66.2402 42.38 66.4068 42C66.5802 41.62 66.8535 41.3467 67.2268 41.18C67.6002 41.0133 68.0902 40.93 68.6968 40.93ZM68.7468 41.97C68.4935 41.97 68.2902 42 68.1368 42.06C67.9902 42.12 67.8835 42.2367 67.8168 42.41C67.7502 42.5767 67.7102 42.82 67.6968 43.14H69.0868C69.3068 43.14 69.4468 43.0933 69.5068 43C69.5735 42.9067 69.6068 42.77 69.6068 42.59C69.6068 42.3567 69.5402 42.1967 69.4068 42.11C69.2735 42.0167 69.0535 41.97 68.7468 41.97ZM75.3114 41.06V42.03H73.9314V44.42C73.9314 44.6 73.9714 44.73 74.0514 44.81C74.1314 44.8833 74.2714 44.92 74.4714 44.92H75.1114L75.2714 45.92C75.1447 45.9667 74.9947 46.0033 74.8214 46.03C74.648 46.0567 74.4747 46.0767 74.3014 46.09C74.1347 46.1033 73.9914 46.11 73.8714 46.11C73.4247 46.11 73.0747 45.9933 72.8214 45.76C72.5747 45.52 72.4514 45.1833 72.4514 44.75V42.03H71.5914V41.11L72.4514 41.07V39.69H73.9314V41.06H75.3114Z" fill="black"/>
<path d="M35.6497 58.696L35.3857 61.336H23.7697V58.696H25.3777C25.7137 56.808 26.4817 55.416 27.6817 54.52C28.8977 53.608 30.6977 53.152 33.0817 53.152C34.0257 53.152 34.8657 53.216 35.6017 53.344C36.3377 53.472 36.9777 53.624 37.5217 53.8L37.1137 57.352C37.0017 57.336 36.7617 57.32 36.3937 57.304C36.0417 57.272 35.6337 57.248 35.1697 57.232C34.7057 57.2 34.2497 57.192 33.8017 57.208C33.3537 57.208 32.9777 57.24 32.6737 57.304C32.2577 57.4 31.9057 57.552 31.6177 57.76C31.3457 57.968 31.1297 58.28 30.9697 58.696H35.6497ZM35.2417 62.056L34.9777 64.696H30.9217C31.0817 65.144 31.2977 65.48 31.5697 65.704C31.8577 65.928 32.2257 66.072 32.6737 66.136C33.0257 66.184 33.4897 66.216 34.0657 66.232C34.6417 66.232 35.2497 66.208 35.8897 66.16C36.5297 66.096 37.0977 66.024 37.5937 65.944L37.9777 69.496C37.3857 69.72 36.6817 69.904 35.8657 70.048C35.0657 70.208 34.1377 70.288 33.0817 70.288C30.6817 70.288 28.8817 69.832 27.6817 68.92C26.4817 68.008 25.7137 66.6 25.3777 64.696H23.7457V62.056H35.2417ZM51.023 53.44L50.855 57.16H44.039L43.895 58.888L46.967 59.296C47.911 59.408 48.679 59.648 49.271 60.016C49.863 60.368 50.319 60.808 50.639 61.336C50.975 61.864 51.207 62.432 51.335 63.04C51.463 63.632 51.527 64.232 51.527 64.84C51.527 65.864 51.335 66.792 50.951 67.624C50.567 68.44 49.919 69.088 49.007 69.568C48.111 70.048 46.863 70.288 45.263 70.288C44.383 70.288 43.415 70.248 42.359 70.168C41.303 70.088 40.223 69.984 39.119 69.856L39.551 65.992C40.367 66.024 41.143 66.056 41.879 66.088C42.631 66.12 43.303 66.136 43.895 66.136C44.855 66.136 45.495 66.024 45.815 65.8C46.135 65.576 46.319 65.192 46.367 64.648C46.415 64.088 46.263 63.696 45.911 63.472C45.575 63.232 44.991 63.08 44.159 63.016L41.135 62.632C40.703 62.568 40.351 62.384 40.079 62.08C39.823 61.776 39.703 61.416 39.719 61L40.175 53.44H51.023ZM59.2876 53.152C60.6316 53.152 61.7356 53.28 62.5996 53.536C63.4636 53.776 64.1356 54.2 64.6156 54.808C65.0956 55.416 65.4316 56.272 65.6236 57.376C65.8156 58.464 65.9116 59.864 65.9116 61.576C65.9116 63.464 65.7756 64.984 65.5036 66.136C65.2316 67.288 64.7996 68.168 64.2076 68.776C63.6316 69.368 62.8636 69.768 61.9036 69.976C60.9596 70.184 59.7996 70.288 58.4236 70.288C57.9276 70.288 57.2396 70.264 56.3596 70.216C55.4796 70.168 54.5276 70.016 53.5036 69.76L53.7196 66.64C54.2476 66.64 54.7196 66.648 55.1356 66.664C55.5516 66.664 56.0076 66.664 56.5036 66.664C57.0156 66.664 57.6556 66.664 58.4236 66.664C59.0636 66.664 59.5516 66.576 59.8876 66.4C60.2396 66.208 60.4876 65.888 60.6316 65.44C60.7756 64.976 60.8716 64.352 60.9196 63.568C60.4876 63.872 60.0156 64.088 59.5036 64.216C58.9916 64.328 58.3916 64.384 57.7036 64.384C56.4396 64.384 55.4556 64.176 54.7516 63.76C54.0476 63.344 53.5516 62.76 53.2636 62.008C52.9756 61.24 52.8316 60.352 52.8316 59.344C52.8316 57.872 53.0076 56.688 53.3596 55.792C53.7276 54.88 54.3756 54.216 55.3036 53.8C56.2476 53.368 57.5756 53.152 59.2876 53.152ZM57.7036 59.224C57.7036 59.976 57.8076 60.456 58.0156 60.664C58.2236 60.872 58.6476 60.976 59.2876 60.976C59.6076 60.976 59.8876 60.944 60.1276 60.88C60.3676 60.8 60.6396 60.688 60.9436 60.544C60.9436 59.44 60.9036 58.624 60.8236 58.096C60.7436 57.552 60.5836 57.2 60.3436 57.04C60.1036 56.864 59.7356 56.776 59.2396 56.776C58.7596 56.776 58.4076 56.848 58.1836 56.992C57.9756 57.136 57.8396 57.392 57.7756 57.76C57.7276 58.112 57.7036 58.6 57.7036 59.224ZM70.3132 65.56C70.9532 65.56 71.3932 65.688 71.6332 65.944C71.8892 66.184 72.0252 66.632 72.0412 67.288V68.824C72.0412 69.624 71.9772 70.312 71.8492 70.888C71.7212 71.48 71.5372 72.008 71.2972 72.472C71.0572 72.952 70.7692 73.424 70.4332 73.888L68.5612 73.288C68.7372 72.744 68.8492 72.192 68.8972 71.632C68.9612 71.088 69.0012 70.544 69.0172 70C68.0732 70 67.5852 69.488 67.5532 68.464L67.6252 67.288C67.6412 66.632 67.7692 66.184 68.0092 65.944C68.2492 65.688 68.6892 65.56 69.3292 65.56H70.3132Z" fill="#18191F"/>
<path d="M71.4358 53.98C71.9691 53.98 72.3991 54.0367 72.7258 54.15C73.0591 54.2567 73.3124 54.44 73.4858 54.7C73.6658 54.96 73.7891 55.3167 73.8558 55.77C73.9224 56.2233 73.9558 56.7933 73.9558 57.48C73.9558 58.26 73.9024 58.89 73.7958 59.37C73.6891 59.85 73.5191 60.2167 73.2858 60.47C73.0591 60.7233 72.7624 60.8967 72.3958 60.99C72.0291 61.0767 71.5824 61.12 71.0558 61.12C70.8758 61.12 70.6258 61.11 70.3058 61.09C69.9924 61.0767 69.6524 61.0233 69.2858 60.93L69.3758 59.96C69.5624 59.9667 69.7291 59.9733 69.8758 59.98C70.0291 59.98 70.1958 59.98 70.3758 59.98C70.5558 59.98 70.7824 59.9833 71.0558 59.99C71.4091 59.9833 71.6824 59.93 71.8758 59.83C72.0758 59.7233 72.2191 59.5333 72.3058 59.26C72.3991 58.9867 72.4558 58.6033 72.4758 58.11C72.2691 58.3033 72.0458 58.44 71.8058 58.52C71.5658 58.5933 71.2758 58.63 70.9358 58.63C70.4358 58.63 70.0424 58.54 69.7558 58.36C69.4758 58.1733 69.2758 57.9167 69.1558 57.59C69.0424 57.2633 68.9858 56.8833 68.9858 56.45C68.9858 55.8833 69.0558 55.42 69.1958 55.06C69.3424 54.6933 69.5924 54.4233 69.9458 54.25C70.3058 54.07 70.8024 53.98 71.4358 53.98ZM70.4258 56.43C70.4191 56.8367 70.4791 57.13 70.6058 57.31C70.7391 57.4833 70.9991 57.57 71.3858 57.57C71.5858 57.57 71.7658 57.5433 71.9258 57.49C72.0924 57.43 72.2791 57.33 72.4858 57.19C72.4858 56.6233 72.4658 56.19 72.4258 55.89C72.3858 55.59 72.2891 55.3867 72.1358 55.28C71.9891 55.1667 71.7524 55.11 71.4258 55.11C71.1324 55.11 70.9124 55.1567 70.7658 55.25C70.6258 55.3433 70.5324 55.4867 70.4858 55.68C70.4391 55.8733 70.4191 56.1233 70.4258 56.43ZM77.3342 53.98C77.8675 53.98 78.2975 54.0367 78.6242 54.15C78.9575 54.2567 79.2109 54.44 79.3842 54.7C79.5642 54.96 79.6875 55.3167 79.7542 55.77C79.8209 56.2233 79.8542 56.7933 79.8542 57.48C79.8542 58.26 79.8009 58.89 79.6942 59.37C79.5875 59.85 79.4175 60.2167 79.1842 60.47C78.9575 60.7233 78.6609 60.8967 78.2942 60.99C77.9275 61.0767 77.4809 61.12 76.9542 61.12C76.7742 61.12 76.5242 61.11 76.2042 61.09C75.8909 61.0767 75.5509 61.0233 75.1842 60.93L75.2742 59.96C75.4609 59.9667 75.6275 59.9733 75.7742 59.98C75.9275 59.98 76.0942 59.98 76.2742 59.98C76.4542 59.98 76.6809 59.9833 76.9542 59.99C77.3075 59.9833 77.5809 59.93 77.7742 59.83C77.9742 59.7233 78.1175 59.5333 78.2042 59.26C78.2975 58.9867 78.3542 58.6033 78.3742 58.11C78.1675 58.3033 77.9442 58.44 77.7042 58.52C77.4642 58.5933 77.1742 58.63 76.8342 58.63C76.3342 58.63 75.9409 58.54 75.6542 58.36C75.3742 58.1733 75.1742 57.9167 75.0542 57.59C74.9409 57.2633 74.8842 56.8833 74.8842 56.45C74.8842 55.8833 74.9542 55.42 75.0942 55.06C75.2409 54.6933 75.4909 54.4233 75.8442 54.25C76.2042 54.07 76.7009 53.98 77.3342 53.98ZM76.3242 56.43C76.3175 56.8367 76.3775 57.13 76.5042 57.31C76.6375 57.4833 76.8975 57.57 77.2842 57.57C77.4842 57.57 77.6642 57.5433 77.8242 57.49C77.9909 57.43 78.1775 57.33 78.3842 57.19C78.3842 56.6233 78.3642 56.19 78.3242 55.89C78.2842 55.59 78.1875 55.3867 78.0342 55.28C77.8875 55.1667 77.6509 55.11 77.3242 55.11C77.0309 55.11 76.8109 55.1567 76.6642 55.25C76.5242 55.3433 76.4309 55.4867 76.3842 55.68C76.3375 55.8733 76.3175 56.1233 76.3242 56.43Z" fill="#18191F"/>
<path fill-rule="evenodd" clip-rule="evenodd" d="M61.2216 11.1073C61.4335 11.2383 61.5625 11.4696 61.5625 11.7188V33.2813C61.5625 33.6782 61.2407 34 60.8438 34H56.5312C56.1343 34 55.8125 33.6782 55.8125 33.2813V31.125H54.375V33.2813C54.375 33.6782 54.0532 34 53.6562 34H40.7188C40.3218 34 40 33.6782 40 33.2813V25.375C40 25.0656 40.198 24.791 40.4915 24.6931L48.625 21.982V17.4688C48.625 17.1965 48.7788 16.9476 49.0223 16.8259L60.5223 11.0759C60.7451 10.9645 61.0097 10.9764 61.2216 11.1073ZM48.625 23.4972L41.4375 25.893V32.5625H48.625V23.4972ZM50.0625 32.5625H52.9375V30.4063C52.9375 30.0093 53.2593 29.6875 53.6562 29.6875H56.5312C56.9282 29.6875 57.25 30.0093 57.25 30.4063V32.5625H60.125V12.8817L50.0625 17.913V32.5625Z" fill="#C0392B"/>
<path d="M42.875 26.8125H44.3125V28.25H42.875V26.8125Z" fill="#C0392B"/>
<path d="M45.75 26.8125H47.1875V28.25H45.75V26.8125Z" fill="#C0392B"/>
<path d="M42.875 29.6875H44.3125V31.125H42.875V29.6875Z" fill="#C0392B"/>
<path d="M45.75 29.6875H47.1875V31.125H45.75V29.6875Z" fill="#C0392B"/>
<path d="M51.5 23.9375H52.9375V25.375H51.5V23.9375Z" fill="#C0392B"/>
<path d="M54.375 23.9375H55.8125V25.375H54.375V23.9375Z" fill="#C0392B"/>
<path d="M51.5 26.8125H52.9375V28.25H51.5V26.8125Z" fill="#C0392B"/>
<path d="M54.375 26.8125H55.8125V28.25H54.375V26.8125Z" fill="#C0392B"/>
<path d="M57.25 23.9375H58.6875V25.375H57.25V23.9375Z" fill="#C0392B"/>
<path d="M57.25 26.8125H58.6875V28.25H57.25V26.8125Z" fill="#C0392B"/>
<path d="M51.5 21.0625H52.9375V22.5H51.5V21.0625Z" fill="#C0392B"/>
<path d="M54.375 21.0625H55.8125V22.5H54.375V21.0625Z" fill="#C0392B"/>
<path d="M57.25 21.0625H58.6875V22.5H57.25V21.0625Z" fill="#C0392B"/>
<path d="M51.5 18.1875H52.9375V19.625H51.5V18.1875Z" fill="#C0392B"/>
<path d="M54.375 18.1875H55.8125V19.625H54.375V18.1875Z" fill="#C0392B"/>
<path d="M57.25 18.1875H58.6875V19.625H57.25V18.1875Z" fill="#C0392B"/>
<path d="M57.25 15.3125H58.6875V16.75H57.25V15.3125Z" fill="#C0392B"/>
</svg>
