<svg width="100" height="100" viewBox="0 0 100 100" fill="none" xmlns="http://www.w3.org/2000/svg">
<rect x="0.5" y="0.5" width="99" height="99" fill="#F6F9FF" stroke="#C0392B"/>
<path d="M0 0H29.6902L7.12565 8.61015L0 29.6902V0Z" fill="#C0392B"/>
<path d="M99.6904 99.6902H70.0002L92.5648 91.08L99.6904 70V99.6902Z" fill="#C0392B"/>
<path d="M27.8371 39C28.4771 39 28.9804 39.0667 29.3471 39.2C29.7204 39.3333 29.9837 39.5633 30.1371 39.89C30.2971 40.2167 30.3771 40.6733 30.3771 41.26C30.3771 41.8467 30.3004 42.3033 30.1471 42.63C30.0004 42.9567 29.7537 43.1833 29.4071 43.31C29.0671 43.4367 28.6104 43.5033 28.0371 43.51C27.8104 43.5033 27.5837 43.4933 27.3571 43.48C27.1371 43.4667 26.9237 43.45 26.7171 43.43V46H25.1971V39.1C25.4704 39.0733 25.7304 39.0533 25.9771 39.04C26.2237 39.0267 26.4904 39.0167 26.7771 39.01C27.0704 39.0033 27.4237 39 27.8371 39ZM27.8071 40.15C27.6071 40.15 27.4137 40.15 27.2271 40.15C27.0471 40.15 26.8771 40.15 26.7171 40.15V42.36H27.8071C28.2071 42.36 28.4804 42.2867 28.6271 42.14C28.7737 41.9933 28.8471 41.7 28.8471 41.26C28.8471 40.82 28.7737 40.5267 28.6271 40.38C28.4804 40.2267 28.2071 40.15 27.8071 40.15ZM32.4387 41.06L32.5787 41.81C33.2587 41.2233 33.9287 40.93 34.5887 40.93H34.8487L34.7087 42.29H34.2987C34.0854 42.29 33.8587 42.32 33.6187 42.38C33.3854 42.44 33.0987 42.53 32.7587 42.65V46H31.2887V41.06H32.4387ZM37.8084 40.93C38.4284 40.93 38.9251 41.0167 39.2984 41.19C39.6717 41.3567 39.9384 41.6333 40.0984 42.02C40.2651 42.4 40.3484 42.9067 40.3484 43.54C40.3484 44.1733 40.2651 44.68 40.0984 45.06C39.9384 45.4333 39.6717 45.7033 39.2984 45.87C38.9251 46.0367 38.4284 46.12 37.8084 46.12C37.1884 46.12 36.6917 46.0367 36.3184 45.87C35.9451 45.7033 35.6751 45.4333 35.5084 45.06C35.3484 44.68 35.2684 44.1733 35.2684 43.54C35.2684 42.9067 35.3484 42.4 35.5084 42.02C35.6751 41.6333 35.9451 41.3567 36.3184 41.19C36.6917 41.0167 37.1884 40.93 37.8084 40.93ZM37.8084 42C37.5484 42 37.3451 42.0433 37.1984 42.13C37.0584 42.2167 36.9584 42.3733 36.8984 42.6C36.8384 42.82 36.8084 43.1333 36.8084 43.54C36.8084 43.94 36.8384 44.25 36.8984 44.47C36.9584 44.69 37.0584 44.8433 37.1984 44.93C37.3451 45.01 37.5484 45.05 37.8084 45.05C38.0684 45.05 38.2684 45.01 38.4084 44.93C38.5551 44.8433 38.6584 44.69 38.7184 44.47C38.7784 44.25 38.8084 43.94 38.8084 43.54C38.8084 43.1333 38.7784 42.82 38.7184 42.6C38.6584 42.3733 38.5551 42.2167 38.4084 42.13C38.2684 42.0433 38.0684 42 37.8084 42Z" fill="#C0392B"/>
<path d="M46.2648 39C46.9048 39 47.4081 39.0667 47.7748 39.2C48.1481 39.3333 48.4115 39.5633 48.5648 39.89C48.7248 40.2167 48.8048 40.6733 48.8048 41.26C48.8048 41.8467 48.7281 42.3033 48.5748 42.63C48.4281 42.9567 48.1815 43.1833 47.8348 43.31C47.4948 43.4367 47.0381 43.5033 46.4648 43.51C46.2381 43.5033 46.0115 43.4933 45.7848 43.48C45.5648 43.4667 45.3515 43.45 45.1448 43.43V46H43.6248V39.1C43.8981 39.0733 44.1581 39.0533 44.4048 39.04C44.6515 39.0267 44.9181 39.0167 45.2048 39.01C45.4981 39.0033 45.8515 39 46.2648 39ZM46.2348 40.15C46.0348 40.15 45.8415 40.15 45.6548 40.15C45.4748 40.15 45.3048 40.15 45.1448 40.15V42.36H46.2348C46.6348 42.36 46.9081 42.2867 47.0548 42.14C47.2015 41.9933 47.2748 41.7 47.2748 41.26C47.2748 40.82 47.2015 40.5267 47.0548 40.38C46.9081 40.2267 46.6348 40.15 46.2348 40.15ZM52.2774 40.93C52.8974 40.93 53.374 41.06 53.7074 41.32C54.0407 41.58 54.2074 42.05 54.2074 42.73V46H53.0374L52.8774 45.22C52.6974 45.4267 52.454 45.6267 52.1474 45.82C51.8407 46.0133 51.464 46.11 51.0174 46.11C50.5707 46.11 50.194 45.9933 49.8874 45.76C49.5807 45.5267 49.4274 45.18 49.4274 44.72V44.21C49.4274 43.8167 49.5607 43.51 49.8274 43.29C50.094 43.07 50.4607 42.96 50.9274 42.96H52.7274V42.73C52.7207 42.49 52.6607 42.32 52.5474 42.22C52.4407 42.1133 52.2374 42.06 51.9374 42.06C51.6774 42.06 51.3574 42.07 50.9774 42.09C50.5974 42.1033 50.2074 42.1233 49.8074 42.15L49.6774 41.17C49.9107 41.13 50.1807 41.0933 50.4874 41.06C50.8007 41.02 51.114 40.99 51.4274 40.97C51.7407 40.9433 52.024 40.93 52.2774 40.93ZM51.4774 45.04C51.6574 45.04 51.8574 45 52.0774 44.92C52.304 44.8333 52.5207 44.7167 52.7274 44.57V43.79H51.3874C51.2074 43.7967 51.0774 43.8433 50.9974 43.93C50.924 44.0167 50.8874 44.1333 50.8874 44.28V44.52C50.8874 44.8667 51.084 45.04 51.4774 45.04ZM60.1407 41.06L58.8507 42.78C58.7907 42.88 58.7141 42.9733 58.6207 43.06C58.5274 43.1467 58.4507 43.2067 58.3907 43.24V43.27C58.4507 43.31 58.5274 43.3833 58.6207 43.49C58.7141 43.59 58.7907 43.6933 58.8507 43.8L60.3107 46H58.6607L57.2607 43.7H56.7807C56.8007 43.8333 56.8141 43.9633 56.8207 44.09C56.8341 44.2167 56.8407 44.3367 56.8407 44.45V46H55.3707V39H56.8407V41.89C56.8474 42.2033 56.8274 42.5067 56.7807 42.8H57.2607L58.4907 41.06H60.1407ZM65.7267 41.06L64.4367 42.78C64.3767 42.88 64.3 42.9733 64.2067 43.06C64.1133 43.1467 64.0367 43.2067 63.9767 43.24V43.27C64.0367 43.31 64.1133 43.3833 64.2067 43.49C64.3 43.59 64.3767 43.6933 64.4367 43.8L65.8967 46H64.2467L62.8467 43.7H62.3667C62.3867 43.8333 62.4 43.9633 62.4067 44.09C62.42 44.2167 62.4267 44.3367 62.4267 44.45V46H60.9567V39H62.4267V41.89C62.4333 42.2033 62.4133 42.5067 62.3667 42.8H62.8467L64.0767 41.06H65.7267ZM68.6968 40.93C69.5302 40.93 70.1268 41.0733 70.4868 41.36C70.8535 41.6467 71.0368 42.0667 71.0368 42.62C71.0435 43.0667 70.9302 43.4033 70.6968 43.63C70.4635 43.8567 70.0602 43.97 69.4868 43.97H67.7268C67.7668 44.3567 67.8768 44.6167 68.0568 44.75C68.2435 44.8833 68.5302 44.95 68.9168 44.95C69.1435 44.95 69.4235 44.9433 69.7568 44.93C70.0968 44.91 70.4368 44.88 70.7768 44.84L70.9168 45.75C70.6235 45.89 70.2768 45.9867 69.8768 46.04C69.4835 46.0933 69.1068 46.12 68.7468 46.12C67.8002 46.12 67.1302 45.9133 66.7368 45.5C66.3502 45.0867 66.1568 44.4333 66.1568 43.54C66.1568 42.8933 66.2402 42.38 66.4068 42C66.5802 41.62 66.8535 41.3467 67.2268 41.18C67.6002 41.0133 68.0902 40.93 68.6968 40.93ZM68.7468 41.97C68.4935 41.97 68.2902 42 68.1368 42.06C67.9902 42.12 67.8835 42.2367 67.8168 42.41C67.7502 42.5767 67.7102 42.82 67.6968 43.14H69.0868C69.3068 43.14 69.4468 43.0933 69.5068 43C69.5735 42.9067 69.6068 42.77 69.6068 42.59C69.6068 42.3567 69.5402 42.1967 69.4068 42.11C69.2735 42.0167 69.0535 41.97 68.7468 41.97ZM75.3114 41.06V42.03H73.9314V44.42C73.9314 44.6 73.9714 44.73 74.0514 44.81C74.1314 44.8833 74.2714 44.92 74.4714 44.92H75.1114L75.2714 45.92C75.1447 45.9667 74.9947 46.0033 74.8214 46.03C74.648 46.0567 74.4747 46.0767 74.3014 46.09C74.1347 46.1033 73.9914 46.11 73.8714 46.11C73.4247 46.11 73.0747 45.9933 72.8214 45.76C72.5747 45.52 72.4514 45.1833 72.4514 44.75V42.03H71.5914V41.11L72.4514 41.07V39.69H73.9314V41.06H75.3114Z" fill="black"/>
<path d="M29.0872 58.696L28.8232 61.336H17.2072V58.696H18.8152C19.1512 56.808 19.9192 55.416 21.1192 54.52C22.3352 53.608 24.1352 53.152 26.5192 53.152C27.4632 53.152 28.3032 53.216 29.0392 53.344C29.7752 53.472 30.4152 53.624 30.9592 53.8L30.5512 57.352C30.4392 57.336 30.1992 57.32 29.8312 57.304C29.4792 57.272 29.0712 57.248 28.6072 57.232C28.1432 57.2 27.6872 57.192 27.2392 57.208C26.7912 57.208 26.4152 57.24 26.1112 57.304C25.6952 57.4 25.3432 57.552 25.0552 57.76C24.7832 57.968 24.5672 58.28 24.4072 58.696H29.0872ZM28.6792 62.056L28.4152 64.696H24.3592C24.5192 65.144 24.7352 65.48 25.0072 65.704C25.2952 65.928 25.6632 66.072 26.1112 66.136C26.4632 66.184 26.9272 66.216 27.5032 66.232C28.0792 66.232 28.6872 66.208 29.3272 66.16C29.9672 66.096 30.5352 66.024 31.0312 65.944L31.4152 69.496C30.8232 69.72 30.1192 69.904 29.3032 70.048C28.5032 70.208 27.5752 70.288 26.5192 70.288C24.1192 70.288 22.3192 69.832 21.1192 68.92C19.9192 68.008 19.1512 66.6 18.8152 64.696H17.1832V62.056H28.6792ZM41.4365 53.44V70H36.2525V59.632C36.2525 59.264 36.2605 58.904 36.2765 58.552C36.3085 58.2 36.3645 57.848 36.4445 57.496L32.6285 58.24L32.0285 55.048L36.2525 53.44H41.4365ZM50.2882 53.152C51.5202 53.152 52.5922 53.264 53.5042 53.488C54.4162 53.712 55.1282 54.128 55.6402 54.736C56.1522 55.328 56.4082 56.176 56.4082 57.28C56.4082 57.856 56.3522 58.376 56.2402 58.84C56.1282 59.304 55.8882 59.792 55.5202 60.304C55.1682 60.816 54.6242 61.44 53.8882 62.176L49.9762 65.872C50.3442 65.76 50.7042 65.688 51.0562 65.656C51.4082 65.624 51.7842 65.616 52.1842 65.632H56.7922V70H43.9522V67.408C43.9522 66.992 44.0082 66.616 44.1202 66.28C44.2322 65.944 44.4162 65.624 44.6722 65.32L48.1282 61.936C49.0242 61.04 49.7362 60.248 50.2642 59.56C50.8082 58.856 51.0802 58.32 51.0802 57.952C51.0802 57.728 50.9682 57.592 50.7442 57.544C50.5362 57.48 50.1602 57.448 49.6162 57.448C49.0242 57.448 48.4722 57.448 47.9602 57.448C47.4482 57.448 46.8962 57.456 46.3042 57.472C45.7282 57.472 45.0482 57.48 44.2642 57.496L44.0962 53.68C45.3442 53.456 46.4482 53.312 47.4082 53.248C48.3842 53.184 49.3442 53.152 50.2882 53.152ZM65.4228 53.104C67.1828 53.104 68.5828 53.368 69.6228 53.896C70.6628 54.408 71.4068 55.296 71.8548 56.56C72.3028 57.808 72.5268 59.528 72.5268 61.72C72.5268 63.912 72.3028 65.64 71.8548 66.904C71.4068 68.152 70.6628 69.04 69.6228 69.568C68.5828 70.08 67.1828 70.336 65.4228 70.336C63.6788 70.336 62.2868 70.08 61.2468 69.568C60.2228 69.04 59.4868 68.152 59.0388 66.904C58.5908 65.64 58.3668 63.912 58.3668 61.72C58.3668 59.528 58.5908 57.808 59.0388 56.56C59.4868 55.296 60.2228 54.408 61.2468 53.896C62.2868 53.368 63.6788 53.104 65.4228 53.104ZM65.3988 56.968C65.0148 56.968 64.7028 57.024 64.4628 57.136C64.2228 57.232 64.0308 57.44 63.8868 57.76C63.7588 58.064 63.6628 58.536 63.5988 59.176C63.5508 59.8 63.5268 60.648 63.5268 61.72C63.5268 62.792 63.5508 63.648 63.5988 64.288C63.6628 64.912 63.7588 65.384 63.8868 65.704C64.0308 66.008 64.2228 66.216 64.4628 66.328C64.7028 66.424 65.0148 66.472 65.3988 66.472C65.7988 66.472 66.1268 66.424 66.3828 66.328C66.6388 66.216 66.8388 66.008 66.9828 65.704C67.1268 65.384 67.2228 64.912 67.2708 64.288C67.3348 63.648 67.3668 62.792 67.3668 61.72C67.3668 60.648 67.3348 59.8 67.2708 59.176C67.2228 58.536 67.1268 58.064 66.9828 57.76C66.8388 57.44 66.6388 57.232 66.3828 57.136C66.1268 57.024 65.7988 56.968 65.3988 56.968ZM76.8757 65.56C77.5157 65.56 77.9557 65.688 78.1957 65.944C78.4517 66.184 78.5877 66.632 78.6037 67.288V68.824C78.6037 69.624 78.5397 70.312 78.4117 70.888C78.2837 71.48 78.0997 72.008 77.8597 72.472C77.6197 72.952 77.3317 73.424 76.9957 73.888L75.1237 73.288C75.2997 72.744 75.4117 72.192 75.4597 71.632C75.5237 71.088 75.5637 70.544 75.5797 70C74.6357 70 74.1477 69.488 74.1157 68.464L74.1877 67.288C74.2037 66.632 74.3317 66.184 74.5717 65.944C74.8117 65.688 75.2517 65.56 75.8917 65.56H76.8757Z" fill="#18191F"/>
<path d="M77.3254 53.96C77.9854 53.96 78.5087 54.0767 78.8954 54.31C79.2887 54.5433 79.5687 54.9233 79.7354 55.45C79.9087 55.97 79.9954 56.67 79.9954 57.55C79.9954 58.43 79.9087 59.1333 79.7354 59.66C79.5687 60.18 79.2887 60.5567 78.8954 60.79C78.5087 61.0167 77.9854 61.13 77.3254 61.13C76.6654 61.13 76.1387 61.0167 75.7454 60.79C75.3587 60.5567 75.082 60.18 74.9154 59.66C74.7487 59.1333 74.6654 58.43 74.6654 57.55C74.6654 56.67 74.7487 55.97 74.9154 55.45C75.082 54.9233 75.3587 54.5433 75.7454 54.31C76.1387 54.0767 76.6654 53.96 77.3254 53.96ZM77.3154 55.15C77.022 55.15 76.792 55.22 76.6254 55.36C76.4587 55.4933 76.342 55.7333 76.2754 56.08C76.2087 56.42 76.1754 56.91 76.1754 57.55C76.1754 58.19 76.2087 58.6833 76.2754 59.03C76.342 59.37 76.4587 59.6067 76.6254 59.74C76.792 59.8733 77.022 59.94 77.3154 59.94C77.6154 59.94 77.8487 59.8733 78.0154 59.74C78.1887 59.6067 78.3087 59.37 78.3754 59.03C78.4487 58.6833 78.4854 58.19 78.4854 57.55C78.4854 56.91 78.4487 56.42 78.3754 56.08C78.3087 55.7333 78.1887 55.4933 78.0154 55.36C77.8487 55.22 77.6154 55.15 77.3154 55.15ZM83.6242 53.96C84.2842 53.96 84.8075 54.0767 85.1942 54.31C85.5875 54.5433 85.8675 54.9233 86.0342 55.45C86.2075 55.97 86.2942 56.67 86.2942 57.55C86.2942 58.43 86.2075 59.1333 86.0342 59.66C85.8675 60.18 85.5875 60.5567 85.1942 60.79C84.8075 61.0167 84.2842 61.13 83.6242 61.13C82.9642 61.13 82.4375 61.0167 82.0442 60.79C81.6575 60.5567 81.3809 60.18 81.2142 59.66C81.0475 59.1333 80.9642 58.43 80.9642 57.55C80.9642 56.67 81.0475 55.97 81.2142 55.45C81.3809 54.9233 81.6575 54.5433 82.0442 54.31C82.4375 54.0767 82.9642 53.96 83.6242 53.96ZM83.6142 55.15C83.3209 55.15 83.0909 55.22 82.9242 55.36C82.7575 55.4933 82.6409 55.7333 82.5742 56.08C82.5075 56.42 82.4742 56.91 82.4742 57.55C82.4742 58.19 82.5075 58.6833 82.5742 59.03C82.6409 59.37 82.7575 59.6067 82.9242 59.74C83.0909 59.8733 83.3209 59.94 83.6142 59.94C83.9142 59.94 84.1475 59.8733 84.3142 59.74C84.4875 59.6067 84.6075 59.37 84.6742 59.03C84.7475 58.6833 84.7842 58.19 84.7842 57.55C84.7842 56.91 84.7475 56.42 84.6742 56.08C84.6075 55.7333 84.4875 55.4933 84.3142 55.36C84.1475 55.22 83.9142 55.15 83.6142 55.15Z" fill="#18191F"/>
<path fill-rule="evenodd" clip-rule="evenodd" d="M61.2216 11.1073C61.4335 11.2383 61.5625 11.4696 61.5625 11.7188V33.2813C61.5625 33.6782 61.2407 34 60.8438 34H56.5312C56.1343 34 55.8125 33.6782 55.8125 33.2813V31.125H54.375V33.2813C54.375 33.6782 54.0532 34 53.6562 34H40.7188C40.3218 34 40 33.6782 40 33.2813V25.375C40 25.0656 40.198 24.791 40.4915 24.6931L48.625 21.982V17.4688C48.625 17.1965 48.7788 16.9476 49.0223 16.8259L60.5223 11.0759C60.7451 10.9645 61.0097 10.9764 61.2216 11.1073ZM48.625 23.4972L41.4375 25.893V32.5625H48.625V23.4972ZM50.0625 32.5625H52.9375V30.4063C52.9375 30.0093 53.2593 29.6875 53.6562 29.6875H56.5312C56.9282 29.6875 57.25 30.0093 57.25 30.4063V32.5625H60.125V12.8817L50.0625 17.913V32.5625Z" fill="#C0392B"/>
<path d="M42.875 26.8125H44.3125V28.25H42.875V26.8125Z" fill="#C0392B"/>
<path d="M45.75 26.8125H47.1875V28.25H45.75V26.8125Z" fill="#C0392B"/>
<path d="M42.875 29.6875H44.3125V31.125H42.875V29.6875Z" fill="#C0392B"/>
<path d="M45.75 29.6875H47.1875V31.125H45.75V29.6875Z" fill="#C0392B"/>
<path d="M51.5 23.9375H52.9375V25.375H51.5V23.9375Z" fill="#C0392B"/>
<path d="M54.375 23.9375H55.8125V25.375H54.375V23.9375Z" fill="#C0392B"/>
<path d="M51.5 26.8125H52.9375V28.25H51.5V26.8125Z" fill="#C0392B"/>
<path d="M54.375 26.8125H55.8125V28.25H54.375V26.8125Z" fill="#C0392B"/>
<path d="M57.25 23.9375H58.6875V25.375H57.25V23.9375Z" fill="#C0392B"/>
<path d="M57.25 26.8125H58.6875V28.25H57.25V26.8125Z" fill="#C0392B"/>
<path d="M51.5 21.0625H52.9375V22.5H51.5V21.0625Z" fill="#C0392B"/>
<path d="M54.375 21.0625H55.8125V22.5H54.375V21.0625Z" fill="#C0392B"/>
<path d="M57.25 21.0625H58.6875V22.5H57.25V21.0625Z" fill="#C0392B"/>
<path d="M51.5 18.1875H52.9375V19.625H51.5V18.1875Z" fill="#C0392B"/>
<path d="M54.375 18.1875H55.8125V19.625H54.375V18.1875Z" fill="#C0392B"/>
<path d="M57.25 18.1875H58.6875V19.625H57.25V18.1875Z" fill="#C0392B"/>
<path d="M57.25 15.3125H58.6875V16.75H57.25V15.3125Z" fill="#C0392B"/>
</svg>
