<svg width="100" height="100" viewBox="0 0 100 100" fill="none" xmlns="http://www.w3.org/2000/svg">
<rect x="0.5" y="0.5" width="99" height="99" fill="#F6F9FF" stroke="#006A93"/>
<path d="M0 1H29.6902L7.12565 9.61015L0 30.6902V1Z" fill="#006A93"/>
<path d="M99.6904 99.6902H70.0002L92.5648 91.08L99.6904 70V99.6902Z" fill="#006A93"/>
<path d="M18.7464 38.97C19.0864 38.97 19.4564 38.99 19.8564 39.03C20.2564 39.0633 20.6464 39.1333 21.0264 39.24L20.9264 40.26C20.633 40.2467 20.2864 40.2367 19.8864 40.23C19.493 40.2233 19.1097 40.22 18.7364 40.22C18.4897 40.22 18.2897 40.2333 18.1364 40.26C17.9897 40.2867 17.883 40.3467 17.8164 40.44C17.7564 40.5267 17.7264 40.6733 17.7264 40.88C17.7264 41.12 17.7797 41.2933 17.8864 41.4C17.9997 41.5067 18.1897 41.6 18.4564 41.68L19.7864 42.11C20.333 42.3033 20.713 42.56 20.9264 42.88C21.1464 43.1933 21.2564 43.61 21.2564 44.13C21.2564 44.6567 21.173 45.0667 21.0064 45.36C20.8397 45.6467 20.5664 45.8467 20.1864 45.96C19.813 46.0733 19.313 46.13 18.6864 46.13C18.4597 46.13 18.1364 46.1133 17.7164 46.08C17.2964 46.0533 16.8197 45.98 16.2864 45.86L16.3764 44.78C16.9697 44.8 17.443 44.8133 17.7964 44.82C18.1564 44.8267 18.453 44.83 18.6864 44.83C19.0864 44.83 19.3597 44.79 19.5064 44.71C19.653 44.6233 19.7264 44.4367 19.7264 44.15C19.7264 43.9033 19.673 43.73 19.5664 43.63C19.4664 43.53 19.2964 43.4433 19.0564 43.37L17.6564 42.89C17.123 42.7033 16.7464 42.4533 16.5264 42.14C16.313 41.8267 16.2064 41.41 16.2064 40.89C16.2064 40.3633 16.2897 39.9633 16.4564 39.69C16.6297 39.41 16.903 39.22 17.2764 39.12C17.6497 39.02 18.1397 38.97 18.7464 38.97ZM25.5164 41.06V42.03H24.1364V44.42C24.1364 44.6 24.1764 44.73 24.2564 44.81C24.3364 44.8833 24.4764 44.92 24.6764 44.92H25.3164L25.4764 45.92C25.3498 45.9667 25.1998 46.0033 25.0264 46.03C24.8531 46.0567 24.6798 46.0767 24.5064 46.09C24.3398 46.1033 24.1964 46.11 24.0764 46.11C23.6298 46.11 23.2798 45.9933 23.0264 45.76C22.7798 45.52 22.6564 45.1833 22.6564 44.75V42.03H21.7964V41.11L22.6564 41.07V39.69H24.1364V41.06H25.5164ZM28.918 40.93C29.538 40.93 30.0147 41.06 30.348 41.32C30.6813 41.58 30.848 42.05 30.848 42.73V46H29.678L29.518 45.22C29.338 45.4267 29.0947 45.6267 28.788 45.82C28.4813 46.0133 28.1047 46.11 27.658 46.11C27.2113 46.11 26.8347 45.9933 26.528 45.76C26.2213 45.5267 26.068 45.18 26.068 44.72V44.21C26.068 43.8167 26.2013 43.51 26.468 43.29C26.7347 43.07 27.1013 42.96 27.568 42.96H29.368V42.73C29.3613 42.49 29.3013 42.32 29.188 42.22C29.0813 42.1133 28.878 42.06 28.578 42.06C28.318 42.06 27.998 42.07 27.618 42.09C27.238 42.1033 26.848 42.1233 26.448 42.15L26.318 41.17C26.5513 41.13 26.8213 41.0933 27.128 41.06C27.4413 41.02 27.7547 40.99 28.068 40.97C28.3813 40.9433 28.6647 40.93 28.918 40.93ZM28.118 45.04C28.298 45.04 28.498 45 28.718 44.92C28.9447 44.8333 29.1613 44.7167 29.368 44.57V43.79H28.028C27.848 43.7967 27.718 43.8433 27.638 43.93C27.5647 44.0167 27.528 44.1333 27.528 44.28V44.52C27.528 44.8667 27.7247 45.04 28.118 45.04ZM33.1614 41.06L33.3014 41.81C33.9814 41.2233 34.6514 40.93 35.3114 40.93H35.5714L35.4314 42.29H35.0214C34.808 42.29 34.5814 42.32 34.3414 42.38C34.108 42.44 33.8214 42.53 33.4814 42.65V46H32.0114V41.06H33.1614ZM39.5692 41.06V42.03H38.1892V44.42C38.1892 44.6 38.2292 44.73 38.3092 44.81C38.3892 44.8833 38.5292 44.92 38.7292 44.92H39.3692L39.5292 45.92C39.4025 45.9667 39.2525 46.0033 39.0792 46.03C38.9058 46.0567 38.7325 46.0767 38.5592 46.09C38.3925 46.1033 38.2492 46.11 38.1292 46.11C37.6825 46.11 37.3325 45.9933 37.0792 45.76C36.8325 45.52 36.7092 45.1833 36.7092 44.75V42.03H35.8492V41.11L36.7092 41.07V39.69H38.1892V41.06H39.5692ZM42.7007 40.93C43.5341 40.93 44.1307 41.0733 44.4907 41.36C44.8574 41.6467 45.0407 42.0667 45.0407 42.62C45.0474 43.0667 44.9341 43.4033 44.7007 43.63C44.4674 43.8567 44.0641 43.97 43.4907 43.97H41.7307C41.7707 44.3567 41.8807 44.6167 42.0607 44.75C42.2474 44.8833 42.5341 44.95 42.9207 44.95C43.1474 44.95 43.4274 44.9433 43.7607 44.93C44.1007 44.91 44.4407 44.88 44.7807 44.84L44.9207 45.75C44.6274 45.89 44.2807 45.9867 43.8807 46.04C43.4874 46.0933 43.1107 46.12 42.7507 46.12C41.8041 46.12 41.1341 45.9133 40.7407 45.5C40.3541 45.0867 40.1607 44.4333 40.1607 43.54C40.1607 42.8933 40.2441 42.38 40.4107 42C40.5841 41.62 40.8574 41.3467 41.2307 41.18C41.6041 41.0133 42.0941 40.93 42.7007 40.93ZM42.7507 41.97C42.4974 41.97 42.2941 42 42.1407 42.06C41.9941 42.12 41.8874 42.2367 41.8207 42.41C41.7541 42.5767 41.7141 42.82 41.7007 43.14H43.0907C43.3107 43.14 43.4507 43.0933 43.5107 43C43.5774 42.9067 43.6107 42.77 43.6107 42.59C43.6107 42.3567 43.5441 42.1967 43.4107 42.11C43.2774 42.0167 43.0574 41.97 42.7507 41.97ZM47.1653 41.06L47.3053 41.81C47.9853 41.2233 48.6553 40.93 49.3153 40.93H49.5753L49.4353 42.29H49.0253C48.8119 42.29 48.5853 42.32 48.3453 42.38C48.1119 42.44 47.8253 42.53 47.4853 42.65V46H46.0153V41.06H47.1653Z" fill="#006A93"/>
<path d="M54.9855 39C55.6255 39 56.1288 39.0667 56.4955 39.2C56.8688 39.3333 57.1322 39.5633 57.2855 39.89C57.4455 40.2167 57.5255 40.6733 57.5255 41.26C57.5255 41.8467 57.4488 42.3033 57.2955 42.63C57.1488 42.9567 56.9022 43.1833 56.5555 43.31C56.2155 43.4367 55.7588 43.5033 55.1855 43.51C54.9588 43.5033 54.7322 43.4933 54.5055 43.48C54.2855 43.4667 54.0722 43.45 53.8655 43.43V46H52.3455V39.1C52.6188 39.0733 52.8788 39.0533 53.1255 39.04C53.3722 39.0267 53.6388 39.0167 53.9255 39.01C54.2188 39.0033 54.5722 39 54.9855 39ZM54.9555 40.15C54.7555 40.15 54.5622 40.15 54.3755 40.15C54.1955 40.15 54.0255 40.15 53.8655 40.15V42.36H54.9555C55.3555 42.36 55.6288 42.2867 55.7755 42.14C55.9222 41.9933 55.9955 41.7 55.9955 41.26C55.9955 40.82 55.9222 40.5267 55.7755 40.38C55.6288 40.2267 55.3555 40.15 54.9555 40.15ZM60.9981 40.93C61.6181 40.93 62.0948 41.06 62.4281 41.32C62.7614 41.58 62.9281 42.05 62.9281 42.73V46H61.7581L61.5981 45.22C61.4181 45.4267 61.1748 45.6267 60.8681 45.82C60.5614 46.0133 60.1848 46.11 59.7381 46.11C59.2914 46.11 58.9148 45.9933 58.6081 45.76C58.3014 45.5267 58.1481 45.18 58.1481 44.72V44.21C58.1481 43.8167 58.2814 43.51 58.5481 43.29C58.8148 43.07 59.1814 42.96 59.6481 42.96H61.4481V42.73C61.4414 42.49 61.3814 42.32 61.2681 42.22C61.1614 42.1133 60.9581 42.06 60.6581 42.06C60.3981 42.06 60.0781 42.07 59.6981 42.09C59.3181 42.1033 58.9281 42.1233 58.5281 42.15L58.3981 41.17C58.6314 41.13 58.9014 41.0933 59.2081 41.06C59.5214 41.02 59.8348 40.99 60.1481 40.97C60.4614 40.9433 60.7448 40.93 60.9981 40.93ZM60.1981 45.04C60.3781 45.04 60.5781 45 60.7981 44.92C61.0248 44.8333 61.2414 44.7167 61.4481 44.57V43.79H60.1081C59.9281 43.7967 59.7981 43.8433 59.7181 43.93C59.6448 44.0167 59.6081 44.1333 59.6081 44.28V44.52C59.6081 44.8667 59.8048 45.04 60.1981 45.04ZM68.8614 41.06L67.5714 42.78C67.5114 42.88 67.4348 42.9733 67.3414 43.06C67.2481 43.1467 67.1714 43.2067 67.1114 43.24V43.27C67.1714 43.31 67.2481 43.3833 67.3414 43.49C67.4348 43.59 67.5114 43.6933 67.5714 43.8L69.0314 46H67.3814L65.9814 43.7H65.5014C65.5214 43.8333 65.5348 43.9633 65.5414 44.09C65.5548 44.2167 65.5614 44.3367 65.5614 44.45V46H64.0914V39H65.5614V41.89C65.5681 42.2033 65.5481 42.5067 65.5014 42.8H65.9814L67.2114 41.06H68.8614ZM74.4474 41.06L73.1574 42.78C73.0974 42.88 73.0207 42.9733 72.9274 43.06C72.834 43.1467 72.7574 43.2067 72.6974 43.24V43.27C72.7574 43.31 72.834 43.3833 72.9274 43.49C73.0207 43.59 73.0974 43.6933 73.1574 43.8L74.6174 46H72.9674L71.5674 43.7H71.0874C71.1074 43.8333 71.1207 43.9633 71.1274 44.09C71.1407 44.2167 71.1474 44.3367 71.1474 44.45V46H69.6774V39H71.1474V41.89C71.154 42.2033 71.134 42.5067 71.0874 42.8H71.5674L72.7974 41.06H74.4474ZM77.4175 40.93C78.2509 40.93 78.8475 41.0733 79.2075 41.36C79.5742 41.6467 79.7575 42.0667 79.7575 42.62C79.7642 43.0667 79.6509 43.4033 79.4175 43.63C79.1842 43.8567 78.7809 43.97 78.2075 43.97H76.4475C76.4875 44.3567 76.5975 44.6167 76.7775 44.75C76.9642 44.8833 77.2509 44.95 77.6375 44.95C77.8642 44.95 78.1442 44.9433 78.4775 44.93C78.8175 44.91 79.1575 44.88 79.4975 44.84L79.6375 45.75C79.3442 45.89 78.9975 45.9867 78.5975 46.04C78.2042 46.0933 77.8275 46.12 77.4675 46.12C76.5209 46.12 75.8509 45.9133 75.4575 45.5C75.0709 45.0867 74.8775 44.4333 74.8775 43.54C74.8775 42.8933 74.9609 42.38 75.1275 42C75.3009 41.62 75.5742 41.3467 75.9475 41.18C76.3209 41.0133 76.8109 40.93 77.4175 40.93ZM77.4675 41.97C77.2142 41.97 77.0109 42 76.8575 42.06C76.7109 42.12 76.6042 42.2367 76.5375 42.41C76.4709 42.5767 76.4309 42.82 76.4175 43.14H77.8075C78.0275 43.14 78.1675 43.0933 78.2275 43C78.2942 42.9067 78.3275 42.77 78.3275 42.59C78.3275 42.3567 78.2609 42.1967 78.1275 42.11C77.9942 42.0167 77.7742 41.97 77.4675 41.97ZM84.0321 41.06V42.03H82.6521V44.42C82.6521 44.6 82.6921 44.73 82.7721 44.81C82.8521 44.8833 82.9921 44.92 83.1921 44.92H83.8321L83.9921 45.92C83.8654 45.9667 83.7154 46.0033 83.5421 46.03C83.3687 46.0567 83.1954 46.0767 83.0221 46.09C82.8554 46.1033 82.7121 46.11 82.5921 46.11C82.1454 46.11 81.7954 45.9933 81.5421 45.76C81.2954 45.52 81.1721 45.1833 81.1721 44.75V42.03H80.3121V41.11L81.1721 41.07V39.69H82.6521V41.06H84.0321Z" fill="black"/>
<path d="M35.052 58.696L34.788 61.336H23.172V58.696H24.78C25.116 56.808 25.884 55.416 27.084 54.52C28.3 53.608 30.1 53.152 32.484 53.152C33.428 53.152 34.268 53.216 35.004 53.344C35.74 53.472 36.38 53.624 36.924 53.8L36.516 57.352C36.404 57.336 36.164 57.32 35.796 57.304C35.444 57.272 35.036 57.248 34.572 57.232C34.108 57.2 33.652 57.192 33.204 57.208C32.756 57.208 32.38 57.24 32.076 57.304C31.66 57.4 31.308 57.552 31.02 57.76C30.748 57.968 30.532 58.28 30.372 58.696H35.052ZM34.644 62.056L34.38 64.696H30.324C30.484 65.144 30.7 65.48 30.972 65.704C31.26 65.928 31.628 66.072 32.076 66.136C32.428 66.184 32.892 66.216 33.468 66.232C34.044 66.232 34.652 66.208 35.292 66.16C35.932 66.096 36.5 66.024 36.996 65.944L37.38 69.496C36.788 69.72 36.084 69.904 35.268 70.048C34.468 70.208 33.54 70.288 32.484 70.288C30.084 70.288 28.284 69.832 27.084 68.92C25.884 68.008 25.116 66.6 24.78 64.696H23.148V62.056H34.644ZM50.4253 53.44L50.2573 57.16H43.4413L43.2973 58.888L46.3693 59.296C47.3133 59.408 48.0813 59.648 48.6733 60.016C49.2653 60.368 49.7213 60.808 50.0413 61.336C50.3773 61.864 50.6093 62.432 50.7373 63.04C50.8653 63.632 50.9293 64.232 50.9293 64.84C50.9293 65.864 50.7373 66.792 50.3533 67.624C49.9693 68.44 49.3213 69.088 48.4093 69.568C47.5133 70.048 46.2653 70.288 44.6653 70.288C43.7853 70.288 42.8173 70.248 41.7613 70.168C40.7053 70.088 39.6253 69.984 38.5213 69.856L38.9533 65.992C39.7693 66.024 40.5453 66.056 41.2813 66.088C42.0333 66.12 42.7053 66.136 43.2973 66.136C44.2573 66.136 44.8973 66.024 45.2173 65.8C45.5373 65.576 45.7213 65.192 45.7693 64.648C45.8173 64.088 45.6653 63.696 45.3133 63.472C44.9773 63.232 44.3933 63.08 43.5613 63.016L40.5373 62.632C40.1053 62.568 39.7533 62.384 39.4813 62.08C39.2253 61.776 39.1053 61.416 39.1213 61L39.5773 53.44H50.4253ZM59.4579 53.104C61.2179 53.104 62.6179 53.368 63.6579 53.896C64.6979 54.408 65.4419 55.296 65.8899 56.56C66.3379 57.808 66.5619 59.528 66.5619 61.72C66.5619 63.912 66.3379 65.64 65.8899 66.904C65.4419 68.152 64.6979 69.04 63.6579 69.568C62.6179 70.08 61.2179 70.336 59.4579 70.336C57.7139 70.336 56.3219 70.08 55.2819 69.568C54.2579 69.04 53.5219 68.152 53.0739 66.904C52.6259 65.64 52.4019 63.912 52.4019 61.72C52.4019 59.528 52.6259 57.808 53.0739 56.56C53.5219 55.296 54.2579 54.408 55.2819 53.896C56.3219 53.368 57.7139 53.104 59.4579 53.104ZM59.4339 56.968C59.0499 56.968 58.7379 57.024 58.4979 57.136C58.2579 57.232 58.0659 57.44 57.9219 57.76C57.7939 58.064 57.6979 58.536 57.6339 59.176C57.5859 59.8 57.5619 60.648 57.5619 61.72C57.5619 62.792 57.5859 63.648 57.6339 64.288C57.6979 64.912 57.7939 65.384 57.9219 65.704C58.0659 66.008 58.2579 66.216 58.4979 66.328C58.7379 66.424 59.0499 66.472 59.4339 66.472C59.8339 66.472 60.1619 66.424 60.4179 66.328C60.6739 66.216 60.8739 66.008 61.0179 65.704C61.1619 65.384 61.2579 64.912 61.3059 64.288C61.3699 63.648 61.4019 62.792 61.4019 61.72C61.4019 60.648 61.3699 59.8 61.3059 59.176C61.2579 58.536 61.1619 58.064 61.0179 57.76C60.8739 57.44 60.6739 57.232 60.4179 57.136C60.1619 57.024 59.8339 56.968 59.4339 56.968ZM70.9108 65.56C71.5508 65.56 71.9908 65.688 72.2308 65.944C72.4868 66.184 72.6228 66.632 72.6388 67.288V68.824C72.6388 69.624 72.5748 70.312 72.4468 70.888C72.3188 71.48 72.1348 72.008 71.8948 72.472C71.6548 72.952 71.3668 73.424 71.0308 73.888L69.1588 73.288C69.3348 72.744 69.4468 72.192 69.4948 71.632C69.5588 71.088 69.5988 70.544 69.6148 70C68.6708 70 68.1828 69.488 68.1508 68.464L68.2228 67.288C68.2388 66.632 68.3668 66.184 68.6068 65.944C68.8468 65.688 69.2868 65.56 69.9268 65.56H70.9108Z" fill="#18191F"/>
<path d="M71.3254 53.96C71.9854 53.96 72.5087 54.0767 72.8954 54.31C73.2887 54.5433 73.5687 54.9233 73.7354 55.45C73.9087 55.97 73.9954 56.67 73.9954 57.55C73.9954 58.43 73.9087 59.1333 73.7354 59.66C73.5687 60.18 73.2887 60.5567 72.8954 60.79C72.5087 61.0167 71.9854 61.13 71.3254 61.13C70.6654 61.13 70.1387 61.0167 69.7454 60.79C69.3587 60.5567 69.082 60.18 68.9154 59.66C68.7487 59.1333 68.6654 58.43 68.6654 57.55C68.6654 56.67 68.7487 55.97 68.9154 55.45C69.082 54.9233 69.3587 54.5433 69.7454 54.31C70.1387 54.0767 70.6654 53.96 71.3254 53.96ZM71.3154 55.15C71.022 55.15 70.792 55.22 70.6254 55.36C70.4587 55.4933 70.342 55.7333 70.2754 56.08C70.2087 56.42 70.1754 56.91 70.1754 57.55C70.1754 58.19 70.2087 58.6833 70.2754 59.03C70.342 59.37 70.4587 59.6067 70.6254 59.74C70.792 59.8733 71.022 59.94 71.3154 59.94C71.6154 59.94 71.8487 59.8733 72.0154 59.74C72.1887 59.6067 72.3087 59.37 72.3754 59.03C72.4487 58.6833 72.4854 58.19 72.4854 57.55C72.4854 56.91 72.4487 56.42 72.3754 56.08C72.3087 55.7333 72.1887 55.4933 72.0154 55.36C71.8487 55.22 71.6154 55.15 71.3154 55.15ZM77.6242 53.96C78.2842 53.96 78.8075 54.0767 79.1942 54.31C79.5875 54.5433 79.8675 54.9233 80.0342 55.45C80.2075 55.97 80.2942 56.67 80.2942 57.55C80.2942 58.43 80.2075 59.1333 80.0342 59.66C79.8675 60.18 79.5875 60.5567 79.1942 60.79C78.8075 61.0167 78.2842 61.13 77.6242 61.13C76.9642 61.13 76.4375 61.0167 76.0442 60.79C75.6575 60.5567 75.3809 60.18 75.2142 59.66C75.0475 59.1333 74.9642 58.43 74.9642 57.55C74.9642 56.67 75.0475 55.97 75.2142 55.45C75.3809 54.9233 75.6575 54.5433 76.0442 54.31C76.4375 54.0767 76.9642 53.96 77.6242 53.96ZM77.6142 55.15C77.3209 55.15 77.0909 55.22 76.9242 55.36C76.7575 55.4933 76.6409 55.7333 76.5742 56.08C76.5075 56.42 76.4742 56.91 76.4742 57.55C76.4742 58.19 76.5075 58.6833 76.5742 59.03C76.6409 59.37 76.7575 59.6067 76.9242 59.74C77.0909 59.8733 77.3209 59.94 77.6142 59.94C77.9142 59.94 78.1475 59.8733 78.3142 59.74C78.4875 59.6067 78.6075 59.37 78.6742 59.03C78.7475 58.6833 78.7842 58.19 78.7842 57.55C78.7842 56.91 78.7475 56.42 78.6742 56.08C78.6075 55.7333 78.4875 55.4933 78.3142 55.36C78.1475 55.22 77.9142 55.15 77.6142 55.15Z" fill="#18191F"/>
<path fill-rule="evenodd" clip-rule="evenodd" d="M41.875 17.7917L50.5 13.9584L59.125 17.7917V23.5417C59.125 28.8605 55.445 33.8342 50.5 35.0417C45.555 33.8342 41.875 28.8605 41.875 23.5417V17.7917ZM57.2083 24.4904H50.5V16.0571L43.7917 19.0375V24.5H50.5V33.0579C54.065 31.9558 56.7004 28.4388 57.2083 24.4904Z" fill="#006A93"/>
</svg>
