<svg width="64" height="64" viewBox="0 0 64 64" fill="none" xmlns="http://www.w3.org/2000/svg">
<rect width="64" height="64" fill="#18191F"/>
<path d="M62.4134 31.6298L36.4324 50.3098L48.4408 31.97L35.5402 13.6706L62.4134 31.6298Z" fill="#C0392B"/>
<path d="M23.6511 34.6126L23.0421 36.3333H22.7883L22.3558 35.096L21.9183 36.3333H21.6646L21.058 34.6126H21.3746L21.8047 35.8959L22.2518 34.6126H22.4742L22.9116 35.9056L23.3514 34.6126H23.6511ZM24.8945 35.7388H24.0535C24.06 35.8693 24.0922 35.966 24.1502 36.0288C24.2098 36.09 24.2976 36.1206 24.4136 36.1206C24.5473 36.1206 24.6714 36.0771 24.7858 35.9901L24.8728 36.198C24.8148 36.2447 24.7431 36.2826 24.6577 36.3116C24.5739 36.339 24.4885 36.3526 24.4015 36.3526C24.2017 36.3526 24.0447 36.2963 23.9303 36.1835C23.8159 36.0707 23.7587 35.916 23.7587 35.7195C23.7587 35.5954 23.7837 35.4851 23.8336 35.3884C23.8835 35.2917 23.9536 35.2168 24.0438 35.1636C24.1341 35.1089 24.2364 35.0815 24.3508 35.0815C24.5183 35.0815 24.6504 35.1363 24.7471 35.2458C24.8454 35.3538 24.8945 35.5028 24.8945 35.6929V35.7388ZM24.358 35.299C24.2775 35.299 24.2114 35.3231 24.1598 35.3715C24.1099 35.4182 24.0777 35.4867 24.0632 35.5769H24.6311C24.6214 35.4851 24.5932 35.4158 24.5465 35.3691C24.5014 35.3223 24.4386 35.299 24.358 35.299ZM25.943 35.0815C26.0493 35.0815 26.1428 35.1081 26.2233 35.1612C26.3055 35.2128 26.3691 35.2861 26.4142 35.3811C26.4594 35.4762 26.4819 35.5866 26.4819 35.7122C26.4819 35.8379 26.4585 35.9499 26.4118 36.0481C26.3667 36.1448 26.3031 36.2197 26.2209 36.2729C26.1404 36.3261 26.0477 36.3526 25.943 36.3526C25.8528 36.3526 25.7722 36.3333 25.7013 36.2946C25.632 36.256 25.5797 36.202 25.5442 36.1327V36.3333H25.247V34.5546H25.5467V35.2966C25.5837 35.2289 25.6369 35.1765 25.7062 35.1395C25.7754 35.1008 25.8544 35.0815 25.943 35.0815ZM25.8632 36.1158C25.9631 36.1158 26.0405 36.0804 26.0952 36.0095C26.15 35.9386 26.1774 35.8395 26.1774 35.7122C26.1774 35.5866 26.15 35.4899 26.0952 35.4222C26.0405 35.353 25.9623 35.3183 25.8608 35.3183C25.7593 35.3183 25.6812 35.353 25.6264 35.4222C25.5716 35.4915 25.5442 35.5898 25.5442 35.7171C25.5442 35.846 25.5716 35.945 25.6264 36.0143C25.6812 36.082 25.7601 36.1158 25.8632 36.1158ZM27.6239 34.6126H28.257C28.539 34.6126 28.7573 34.6876 28.9119 34.8374C29.0682 34.9872 29.1464 35.1983 29.1464 35.4706C29.1464 35.7445 29.0682 35.9571 28.9119 36.1086C28.7573 36.2584 28.539 36.3333 28.257 36.3333H27.6239V34.6126ZM28.2377 36.0796C28.634 36.0796 28.8322 35.8766 28.8322 35.4706C28.8322 35.0678 28.634 34.8664 28.2377 34.8664H27.9356V36.0796H28.2377ZM30.6078 35.7388H29.7668C29.7732 35.8693 29.8054 35.966 29.8634 36.0288C29.923 36.09 30.0108 36.1206 30.1268 36.1206C30.2606 36.1206 30.3846 36.0771 30.499 35.9901L30.586 36.198C30.528 36.2447 30.4563 36.2826 30.3709 36.3116C30.2871 36.339 30.2018 36.3526 30.1148 36.3526C29.915 36.3526 29.7579 36.2963 29.6435 36.1835C29.5291 36.0707 29.4719 35.916 29.4719 35.7195C29.4719 35.5954 29.4969 35.4851 29.5468 35.3884C29.5968 35.2917 29.6669 35.2168 29.7571 35.1636C29.8473 35.1089 29.9496 35.0815 30.064 35.0815C30.2316 35.0815 30.3637 35.1363 30.4603 35.2458C30.5586 35.3538 30.6078 35.5028 30.6078 35.6929V35.7388ZM30.0713 35.299C29.9907 35.299 29.9246 35.3231 29.8731 35.3715C29.8231 35.4182 29.7909 35.4867 29.7764 35.5769H30.3443C30.3347 35.4851 30.3065 35.4158 30.2598 35.3691C30.2146 35.3223 30.1518 35.299 30.0713 35.299ZM31.4073 36.3526C31.1866 36.3526 31.011 36.3011 30.8805 36.198L30.9651 35.9853C31.0956 36.082 31.2446 36.1303 31.4122 36.1303C31.4847 36.1303 31.5402 36.1182 31.5789 36.0941C31.6192 36.0699 31.6393 36.0361 31.6393 35.9926C31.6393 35.9555 31.6256 35.9265 31.5982 35.9056C31.5708 35.883 31.5241 35.8637 31.4581 35.8476L31.2551 35.8016C31.0327 35.7533 30.9216 35.6397 30.9216 35.4609C30.9216 35.3868 30.9425 35.3215 30.9844 35.2651C31.0263 35.2071 31.0851 35.162 31.1608 35.1298C31.2365 35.0976 31.3243 35.0815 31.4242 35.0815C31.5112 35.0815 31.595 35.0952 31.6756 35.1226C31.7561 35.1483 31.827 35.1862 31.8882 35.2361L31.7988 35.4416C31.6764 35.3513 31.5507 35.3062 31.4218 35.3062C31.3525 35.3062 31.2986 35.3191 31.2599 35.3449C31.2212 35.3707 31.2019 35.4061 31.2019 35.4512C31.2019 35.4867 31.2132 35.5149 31.2357 35.5358C31.2599 35.5568 31.3002 35.5745 31.3566 35.589L31.5644 35.6349C31.6852 35.6623 31.773 35.705 31.8278 35.763C31.8842 35.8194 31.9124 35.8935 31.9124 35.9853C31.9124 36.0981 31.8673 36.1875 31.7771 36.2536C31.6868 36.3196 31.5636 36.3526 31.4073 36.3526ZM32.2676 35.1129H32.5673V36.3333H32.2676V35.1129ZM32.5842 34.5595V34.8567H32.2483V34.5595H32.5842ZM34.1737 35.1129V36.2946C34.1737 36.4848 34.1214 36.629 34.0166 36.7272C33.9119 36.8255 33.7581 36.8746 33.5551 36.8746C33.3666 36.8746 33.2006 36.8352 33.0572 36.7562L33.1056 36.5266C33.2538 36.604 33.4012 36.6426 33.5478 36.6426C33.7653 36.6426 33.8741 36.5347 33.8741 36.3188V36.0771C33.837 36.1432 33.783 36.1972 33.7121 36.2391C33.6412 36.2793 33.5615 36.2995 33.4729 36.2995C33.3666 36.2995 33.2715 36.2745 33.1877 36.2246C33.1056 36.173 33.0411 36.1013 32.9944 36.0095C32.9493 35.916 32.9267 35.8097 32.9267 35.6905C32.9267 35.5713 32.9493 35.4657 32.9944 35.3739C33.0411 35.2805 33.1056 35.2088 33.1877 35.1588C33.2715 35.1073 33.3666 35.0815 33.4729 35.0815C33.5631 35.0815 33.6429 35.1008 33.7121 35.1395C33.783 35.1765 33.837 35.2289 33.8741 35.2966V35.1129H34.1737ZM33.5526 36.0626C33.6525 36.0626 33.7307 36.0296 33.7871 35.9636C33.8451 35.8975 33.8741 35.8065 33.8741 35.6905C33.8741 35.5745 33.8459 35.4835 33.7895 35.4174C33.7331 35.3513 33.6541 35.3183 33.5526 35.3183C33.4527 35.3183 33.3738 35.3513 33.3158 35.4174C33.2594 35.4835 33.2312 35.5745 33.2312 35.6905C33.2312 35.8065 33.2594 35.8975 33.3158 35.9636C33.3738 36.0296 33.4527 36.0626 33.5526 36.0626ZM35.2952 35.0815C35.5868 35.0815 35.7326 35.249 35.7326 35.5841V36.3333H35.4305V35.5986C35.4305 35.502 35.412 35.4319 35.3749 35.3884C35.3379 35.3433 35.2807 35.3207 35.2033 35.3207C35.1115 35.3207 35.0374 35.3505 34.981 35.4101C34.9246 35.4681 34.8964 35.5455 34.8964 35.6421V36.3333H34.5968V35.4585C34.5968 35.3296 34.5903 35.2144 34.5774 35.1129H34.8602L34.8819 35.3135C34.9238 35.2394 34.9802 35.1822 35.0511 35.1419C35.1236 35.1016 35.2049 35.0815 35.2952 35.0815ZM37.5136 36.3551C37.3814 36.3551 37.2574 36.3373 37.1414 36.3019C37.027 36.2665 36.9295 36.2157 36.849 36.1496L36.9553 35.9225C37.0391 35.9853 37.1261 36.032 37.2163 36.0626C37.3081 36.0916 37.408 36.1061 37.516 36.1061C37.6352 36.1061 37.727 36.0852 37.7915 36.0433C37.8575 36.0014 37.8906 35.9426 37.8906 35.8669C37.8906 35.8025 37.8599 35.7533 37.7987 35.7195C37.7391 35.684 37.64 35.651 37.5015 35.6204C37.2856 35.5737 37.1285 35.5133 37.0302 35.4391C36.9319 35.365 36.8828 35.2571 36.8828 35.1153C36.8828 35.0138 36.9102 34.9236 36.965 34.8446C37.0197 34.7657 37.0971 34.7037 37.197 34.6586C37.2985 34.6135 37.4153 34.5909 37.5474 34.5909C37.6682 34.5909 37.7826 34.6094 37.8906 34.6465C38.0001 34.6819 38.0895 34.7319 38.1588 34.7963L38.0549 35.0235C37.9018 34.901 37.7327 34.8398 37.5474 34.8398C37.4362 34.8398 37.3484 34.8632 37.284 34.9099C37.2195 34.955 37.1873 35.017 37.1873 35.096C37.1873 35.1636 37.2155 35.2152 37.2719 35.2506C37.3299 35.2861 37.4282 35.3191 37.5667 35.3497C37.7101 35.3836 37.8269 35.4206 37.9171 35.4609C38.0074 35.4996 38.0766 35.5503 38.125 35.6131C38.1733 35.6744 38.1975 35.7517 38.1975 35.8451C38.1975 35.9483 38.1701 36.0385 38.1153 36.1158C38.0605 36.1915 37.9816 36.2503 37.8785 36.2922C37.7754 36.3341 37.6537 36.3551 37.5136 36.3551ZM38.929 35.3401V35.8862C38.929 36.0296 38.9959 36.1013 39.1296 36.1013C39.1667 36.1013 39.207 36.0949 39.2505 36.082V36.3212C39.1973 36.3406 39.1328 36.3502 39.0571 36.3502C38.9186 36.3502 38.8122 36.3116 38.7381 36.2342C38.664 36.1569 38.627 36.0457 38.627 35.9007V35.3401H38.3925V35.1129H38.627V34.8156L38.929 34.7141V35.1129H39.2529V35.3401H38.929ZM40.6688 35.1129V36.3333H40.374V36.1448C40.3353 36.2125 40.2838 36.264 40.2193 36.2995C40.1549 36.3349 40.0808 36.3526 39.997 36.3526C39.6989 36.3526 39.5499 36.1851 39.5499 35.85V35.1129H39.8496V35.8524C39.8496 35.941 39.8673 36.0063 39.9027 36.0481C39.9398 36.09 39.9962 36.111 40.0719 36.111C40.1605 36.111 40.2314 36.082 40.2846 36.024C40.3377 35.966 40.3643 35.8886 40.3643 35.792V35.1129H40.6688ZM42.2607 34.5546V36.3333H41.9634V36.1376C41.9264 36.2052 41.8732 36.2584 41.8039 36.2971C41.7347 36.3341 41.6557 36.3526 41.5671 36.3526C41.4624 36.3526 41.3689 36.3261 41.2868 36.2729C41.2046 36.2197 41.1402 36.1448 41.0934 36.0481C41.0483 35.9499 41.0258 35.8379 41.0258 35.7122C41.0258 35.5866 41.0483 35.4762 41.0934 35.3811C41.1385 35.2861 41.2022 35.2128 41.2843 35.1612C41.3665 35.1081 41.4608 35.0815 41.5671 35.0815C41.6541 35.0815 41.7314 35.1 41.7991 35.1371C41.8684 35.1725 41.9215 35.2233 41.9586 35.2893V34.5546H42.2607ZM41.6468 36.1158C41.7467 36.1158 41.8241 36.0812 41.8788 36.0119C41.9352 35.9426 41.9634 35.8443 41.9634 35.7171C41.9634 35.5898 41.936 35.4915 41.8813 35.4222C41.8265 35.353 41.7492 35.3183 41.6493 35.3183C41.5478 35.3183 41.4688 35.353 41.4124 35.4222C41.3577 35.4899 41.3303 35.5866 41.3303 35.7122C41.3303 35.8395 41.3577 35.9386 41.4124 36.0095C41.4688 36.0804 41.547 36.1158 41.6468 36.1158ZM42.6864 35.1129H42.986V36.3333H42.6864V35.1129ZM43.0029 34.5595V34.8567H42.667V34.5595H43.0029ZM43.9666 36.3526C43.8425 36.3526 43.733 36.3269 43.6379 36.2753C43.5445 36.2238 43.472 36.1505 43.4204 36.0554C43.3705 35.9587 43.3455 35.846 43.3455 35.7171C43.3455 35.5882 43.3705 35.4762 43.4204 35.3811C43.472 35.2845 43.5445 35.2104 43.6379 35.1588C43.733 35.1073 43.8425 35.0815 43.9666 35.0815C44.089 35.0815 44.197 35.1073 44.2904 35.1588C44.3838 35.2104 44.4555 35.2845 44.5055 35.3811C44.557 35.4762 44.5828 35.5882 44.5828 35.7171C44.5828 35.846 44.557 35.9587 44.5055 36.0554C44.4555 36.1505 44.3838 36.2238 44.2904 36.2753C44.197 36.3269 44.089 36.3526 43.9666 36.3526ZM43.9641 36.1158C44.0673 36.1158 44.1454 36.0828 44.1986 36.0167C44.2533 35.9491 44.2807 35.8492 44.2807 35.7171C44.2807 35.5866 44.2533 35.4875 44.1986 35.4198C44.1438 35.3505 44.0665 35.3159 43.9666 35.3159C43.8651 35.3159 43.7869 35.3505 43.7321 35.4198C43.6774 35.4875 43.65 35.5866 43.65 35.7171C43.65 35.8492 43.6766 35.9491 43.7297 36.0167C43.7845 36.0828 43.8626 36.1158 43.9641 36.1158Z" fill="#F6F9FF"/>
<path d="M1.44641 31.8869L38.2331 6.89972L16.8493 31.8181L38.008 57.3254L1.44641 31.8869Z" fill="#C0392B"/>
<path d="M11.4583 27.4078H12.4715V33H11.4583V27.4078ZM15.3084 28.2404H13.4863V27.4078H18.1595V28.2404H16.3295V33H15.3084V28.2404ZM24.1802 33.0707C23.6304 33.0707 23.1486 32.9529 22.735 32.7173C22.3266 32.4816 22.0124 32.1491 21.7925 31.7198C21.5726 31.2852 21.4626 30.7773 21.4626 30.1961C21.4626 29.6201 21.5726 29.1174 21.7925 28.6881C22.0124 28.2535 22.3266 27.921 22.735 27.6906C23.1486 27.455 23.6304 27.3371 24.1802 27.3371C24.5572 27.3371 24.9106 27.3974 25.2405 27.5178C25.5756 27.633 25.8531 27.7953 26.073 28.0048L25.7431 28.743C25.4918 28.5388 25.2405 28.3922 24.9891 28.3032C24.743 28.209 24.4786 28.1618 24.1959 28.1618C23.6565 28.1618 23.2377 28.3372 22.9392 28.6881C22.646 29.0389 22.4994 29.5415 22.4994 30.1961C22.4994 30.8558 22.646 31.3637 22.9392 31.7198C23.2324 32.0706 23.6513 32.246 24.1959 32.246C24.4786 32.246 24.743 32.2015 24.9891 32.1125C25.2405 32.0182 25.4918 31.869 25.7431 31.6648L26.073 32.4031C25.8531 32.6125 25.5756 32.7775 25.2405 32.8979C24.9106 33.0131 24.5572 33.0707 24.1802 33.0707ZM28.9854 33.0628C28.5822 33.0628 28.2261 32.9791 27.9172 32.8115C27.6135 32.6439 27.3779 32.4057 27.2103 32.0968C27.048 31.7826 26.9668 31.4161 26.9668 30.9972C26.9668 30.5783 27.048 30.2144 27.2103 29.9055C27.3779 29.5913 27.6135 29.3504 27.9172 29.1829C28.2261 29.0153 28.5822 28.9315 28.9854 28.9315C29.3833 28.9315 29.7341 29.0153 30.0378 29.1829C30.3415 29.3504 30.5745 29.5913 30.7368 29.9055C30.9044 30.2144 30.9882 30.5783 30.9882 30.9972C30.9882 31.4161 30.9044 31.7826 30.7368 32.0968C30.5745 32.4057 30.3415 32.6439 30.0378 32.8115C29.7341 32.9791 29.3833 33.0628 28.9854 33.0628ZM28.9775 32.2931C29.3126 32.2931 29.5666 32.1858 29.7394 31.9711C29.9174 31.7512 30.0064 31.4265 30.0064 30.9972C30.0064 30.5731 29.9174 30.251 29.7394 30.0311C29.5613 29.806 29.31 29.6934 28.9854 29.6934C28.6555 29.6934 28.4015 29.806 28.2235 30.0311C28.0455 30.251 27.9565 30.5731 27.9565 30.9972C27.9565 31.4265 28.0429 31.7512 28.2157 31.9711C28.3937 32.1858 28.6476 32.2931 28.9775 32.2931ZM34.4189 28.9315C35.3666 28.9315 35.8405 29.4761 35.8405 30.5652V33H34.8587V30.6123C34.8587 30.2982 34.7985 30.0704 34.678 29.929C34.5576 29.7824 34.3717 29.7091 34.1204 29.7091C33.8219 29.7091 33.5811 29.806 33.3978 29.9997C33.2145 30.1882 33.1229 30.4395 33.1229 30.7537V33H32.149V30.1568C32.149 29.7379 32.1281 29.3635 32.0862 29.0336H33.0051L33.0758 29.6855C33.2119 29.4447 33.3952 29.2588 33.6256 29.1279C33.8612 28.997 34.1256 28.9315 34.4189 28.9315ZM38.4444 29.7719V31.547C38.4444 32.013 38.6617 32.246 39.0963 32.246C39.2167 32.246 39.3477 32.2251 39.489 32.1832V32.9607C39.3162 33.0236 39.1068 33.055 38.8607 33.055C38.4104 33.055 38.0648 32.9293 37.8239 32.678C37.5831 32.4266 37.4627 32.0654 37.4627 31.5941V29.7719H36.7008V29.0336H37.4627V28.0676L38.4444 27.7377V29.0336H39.4969V29.7719H38.4444ZM43.9573 31.0679H41.2241C41.245 31.492 41.3497 31.8062 41.5382 32.0104C41.732 32.2093 42.0173 32.3088 42.3943 32.3088C42.8289 32.3088 43.2321 32.1675 43.6039 31.8847L43.8866 32.5602C43.6981 32.712 43.4651 32.8351 43.1876 32.9293C42.9153 33.0183 42.6378 33.0628 42.3551 33.0628C41.7058 33.0628 41.1953 32.8796 40.8235 32.513C40.4517 32.1465 40.2658 31.6438 40.2658 31.005C40.2658 30.6019 40.347 30.2432 40.5093 29.929C40.6716 29.6149 40.8994 29.3714 41.1926 29.1986C41.4859 29.0206 41.8184 28.9315 42.1901 28.9315C42.7347 28.9315 43.164 29.1096 43.4782 29.4656C43.7976 29.8164 43.9573 30.3008 43.9573 30.9186V31.0679ZM42.2137 29.6384C41.9519 29.6384 41.7372 29.717 41.5696 29.874C41.4073 30.0259 41.3026 30.2484 41.2555 30.5416H43.1012C43.0698 30.2432 42.9782 30.018 42.8263 29.8662C42.6797 29.7143 42.4755 29.6384 42.2137 29.6384ZM48.9362 33H47.766L46.6978 31.6569L45.6296 33H44.4672L46.1323 30.9579L44.5693 29.0336H45.7317L46.6978 30.2668L47.6639 29.0336H48.8341L47.2712 30.9579L48.9362 33ZM50.9534 29.7719V31.547C50.9534 32.013 51.1707 32.246 51.6053 32.246C51.7257 32.246 51.8566 32.2251 51.998 32.1832V32.9607C51.8252 33.0236 51.6158 33.055 51.3697 33.055C50.9194 33.055 50.5738 32.9293 50.3329 32.678C50.0921 32.4266 49.9716 32.0654 49.9716 31.5941V29.7719H49.2098V29.0336H49.9716V28.0676L50.9534 27.7377V29.0336H52.0059V29.7719H50.9534Z" fill="#F6F9FF"/>
</svg>
